<?xml version="1.0" standalone="no"?>
<!DOCTYPE svg PUBLIC "-//W3C//DTD SVG 1.1//EN" "http://www.w3.org/Graphics/SVG/1.1/DTD/svg11.dtd" >
<svg xmlns="http://www.w3.org/2000/svg">
<metadata></metadata>
<defs>
<font id="betonef-demiboldregular" horiz-adv-x="1024" >
<font-face units-per-em="2048" ascent="1638" descent="-410" />
<missing-glyph horiz-adv-x="512" />
<glyph horiz-adv-x="2048" />
<glyph horiz-adv-x="2048" />
<glyph unicode="&#xd;" horiz-adv-x="2048" />
<glyph unicode=" "  horiz-adv-x="512" />
<glyph unicode="&#x09;" horiz-adv-x="512" />
<glyph unicode="&#xa0;" horiz-adv-x="512" />
<glyph unicode="!" horiz-adv-x="512" d="M162 66q0 35 25.5 60.5t60.5 25.5t60.5 -25.5t25.5 -60.5t-25.5 -60.5t-60.5 -25.5t-60.5 25.5t-25.5 60.5zM207 270v1096h145l-55 -1096h-90z" />
<glyph unicode="&#x22;" horiz-adv-x="638" d="M115 1366h137l-23 -551h-92zM387 1366h139l-22 -551h-94z" />
<glyph unicode="#" horiz-adv-x="1228" d="M78 434l16 115h234l45 293h-234l19 116h231l64 408h127l-62 -408h295l64 408h129l-62 -408h225l-16 -116h-227l-43 -293h227l-18 -115h-228l-67 -434h-129l65 434h-295l-65 -434h-129l65 434h-231zM457 549h297l43 293h-297z" />
<glyph unicode="$" horiz-adv-x="1009" d="M129 20v381h98q25 -227 234 -280v516q-68 27 -101.5 42t-82.5 49t-78 75q-62 87 -62 192q0 71 29.5 138t81.5 114q48 43 93.5 59.5t119.5 24.5v133h86v-133q72 -18 117 -44.5t88 -80.5l18 109h72v-365h-90q-18 115 -59.5 172t-145.5 95v-476q49 -18 75.5 -29.5t66 -31.5 t69 -44.5t53.5 -55.5q72 -93 72 -211q0 -147 -93 -238.5t-243 -110.5v-182h-86v182q-76 12 -128.5 38t-105.5 81l-22 -119h-76zM274 1006q0 -46 13.5 -82t41.5 -63t57.5 -45.5t74.5 -39.5v445q-187 -36 -187 -215zM547 123q198 51 198 235q0 51 -13.5 88.5t-45 66 t-59.5 45.5t-80 42v-477z" />
<glyph unicode="%" horiz-adv-x="1181" d="M39 27l1063 1366l59 -47l-1063 -1369zM53 1051q0 80 24.5 149t82 117.5t139.5 48.5q49 0 90.5 -18.5t69 -50t47 -72.5t28.5 -85t9 -89t-9 -89t-28.5 -85t-47 -72t-69 -49.5t-90.5 -18.5q-81 0 -138.5 48.5t-82.5 117.5t-25 148zM160 1053q0 -50 10.5 -96t43 -84.5 t83.5 -38.5t84 38.5t44 84.5t11 96t-11 95.5t-44 83.5t-84 38t-83.5 -38t-43 -83.5t-10.5 -95.5zM643 313q0 79 25 148.5t82.5 118.5t138.5 49q61 0 109.5 -28.5t77 -75t43 -101t14.5 -111.5t-14.5 -111t-43 -100t-77 -74t-109.5 -28q-81 0 -138.5 48t-82.5 117t-25 148z M750 315q0 -50 10.5 -96t43 -84.5t83.5 -38.5t84 38.5t44 84.5t11 96t-11 95.5t-44 83.5t-84 38t-83.5 -38t-43 -83.5t-10.5 -95.5z" />
<glyph unicode="&#x26;" horiz-adv-x="1218" d="M47 244q0 32 9 64t21.5 58t36 56t42 50.5t50 49.5t50.5 44t53 42.5t47 38.5q-141 169 -141 303q0 114 79 194.5t193 80.5q106 0 184.5 -72.5t78.5 -177.5q0 -49 -19 -96t-57.5 -91.5t-67.5 -72t-78 -68.5l203 -231q189 262 189 293q0 9 -6 15t-19.5 8.5t-21.5 3t-25 0.5 l-17 -1v101h332v-101q-74 -3 -102 -16.5t-66 -71.5l-202 -303l202 -229h168v-115h-243l-211 242q-39 -51 -63 -79.5t-64 -67.5t-74.5 -59t-83 -35t-102.5 -15q-115 0 -195 72t-80 186zM178 262q0 -72 51.5 -117t124.5 -45q45 0 85.5 16.5t78 52t60 61.5t57.5 72q3 4 5.5 7 t4.5 6l-217 250q-7 -5 -36.5 -27.5t-42 -32t-40 -32.5t-41.5 -38t-34.5 -38.5t-30.5 -43t-17.5 -44t-7.5 -47.5zM334 954q0 -108 119 -219q4 4 30.5 25t35.5 28.5t31 28t31.5 33.5t22.5 33t18 39.5t5 40.5q0 61 -40.5 104t-101.5 43q-64 0 -107.5 -46t-43.5 -110z" />
<glyph unicode="'" horiz-adv-x="366" d="M115 1366h137l-23 -551h-92z" />
<glyph unicode="(" horiz-adv-x="530" d="M76 494q0 232 51 444.5t152 454.5h102q-91 -256 -129.5 -452t-38.5 -445q0 -466 156 -854h-90q-203 438 -203 852z" />
<glyph unicode=")" horiz-adv-x="530" d="M150 1393h104q104 -252 152.5 -455t48.5 -442q0 -406 -201 -854h-92q85 210 120 411t35 443q0 250 -38 446t-129 451z" />
<glyph unicode="*" horiz-adv-x="884" d="M137 1135l27 86l233 -76v244h90v-244l232 76l29 -86l-234 -76l148 -199l-74 -53l-146 199l-143 -199l-76 53l148 199z" />
<glyph unicode="+" d="M68 621v116h381v359h126v-359h381v-116h-381v-357h-126v357h-381z" />
<glyph unicode="," horiz-adv-x="477" d="M55 -375l123 553h141l-167 -553h-97z" />
<glyph unicode="-" horiz-adv-x="452" d="M0 373v106h453v-106h-453z" />
<glyph unicode="." horiz-adv-x="477" d="M154 68q0 35 25.5 60.5t60.5 25.5t60.5 -25.5t25.5 -60.5t-25.5 -60.5t-60.5 -25.5q-37 0 -61.5 24.5t-24.5 61.5z" />
<glyph unicode="/" horiz-adv-x="849" d="M27 -252l641 1645l86 -43l-639 -1643z" />
<glyph unicode="0" horiz-adv-x="1009" d="M98 641q0 68 8 137.5t25.5 147t49.5 144.5t75 121.5t107.5 86t142.5 31.5q77 0 141.5 -31.5t107.5 -86t75 -121.5t49.5 -144.5t25.5 -147.5t8 -137t-8 -136.5t-25.5 -146t-49.5 -142t-75 -119t-107.5 -84.5t-141.5 -31q-92 0 -165.5 45t-117.5 114t-73.5 159.5 t-40.5 174.5t-11 166zM229 641q0 -48 4.5 -100t14.5 -117t30.5 -122t49 -106t73 -77.5t99.5 -28.5q66 0 118.5 42t82 103.5t49 140.5t26 144.5t6.5 124.5q0 60 -6 124.5t-25 144.5t-48 141t-81 103t-118 42q-67 0 -119 -42.5t-80.5 -104t-46.5 -142.5t-23.5 -145t-5.5 -125z " />
<glyph unicode="1" horiz-adv-x="1009" d="M272 1098v102q194 38 289 117v-1202h146v-115h-422v115h141v983h-154z" />
<glyph unicode="2" horiz-adv-x="1009" d="M96 938q0 165 115.5 268t282.5 103q177 0 286 -103.5t109 -279.5q0 -58 -18 -119t-44 -113.5t-71 -112.5t-84 -104.5t-97.5 -102t-97.5 -92.5t-99 -88.5t-87 -78.5h342q43 0 70 2t47.5 11t30.5 19t16 34.5t7 48.5t1 69h88v-299h-770v115q4 4 58 49.5t63.5 54t58.5 51 t64 57t57.5 54t61 60.5t53 57.5t55.5 64t45.5 61.5t44.5 66q72 117 72 232q0 123 -76 198.5t-199 75.5q-108 0 -186 -71.5t-78 -178.5q0 -149 152 -237l-78 -103q-195 131 -195 332z" />
<glyph unicode="3" horiz-adv-x="1009" d="M111 84v137q160 -129 311 -129q133 0 220 89t87 222q0 122 -82 200.5t-205 78.5q-55 0 -120 -20v90l385 430h-345q-50 0 -80 -5.5t-50 -16t-29 -35t-12 -52t-3 -78.5h-77v295h743v-108l-371 -410q7 0 20.5 1t20.5 1q154 0 252 -107.5t98 -263.5q0 -184 -124.5 -302.5 t-309.5 -118.5q-90 0 -166.5 25.5t-162.5 76.5z" />
<glyph unicode="4" horiz-adv-x="1009" d="M92 401v101l498 788h131v-788h199v-101h-199v-286h158v-115h-447v115h158v286h-498zM205 502h385v610z" />
<glyph unicode="5" horiz-adv-x="1009" d="M145 80v141q78 -61 146 -92t151 -31q137 0 228.5 88.5t91.5 225.5q0 143 -90 225t-234 82q-91 0 -155.5 -31.5t-137.5 -101.5v704h674v-110h-555v-420q64 33 110.5 46t110.5 13q183 0 301.5 -109t118.5 -290q0 -192 -128 -315t-320 -123q-87 0 -156 23.5t-156 74.5z" />
<glyph unicode="6" horiz-adv-x="1009" d="M111 373q0 28 5 58t9.5 51.5t19 55t20.5 48.5t27.5 52.5t26.5 45.5t31.5 50.5t28.5 45.5l319 510h147l-376 -583q83 51 178 51q154 0 261 -106t107 -261q0 -173 -114.5 -291t-286.5 -118q-168 0 -285.5 112t-117.5 279zM236 365q0 -115 82 -193t198 -78t193 83.5 t77 201.5q0 113 -78 191.5t-190 78.5q-120 0 -201 -82t-81 -202z" />
<glyph unicode="7" horiz-adv-x="1009" d="M131 967v323h799v-116l-631 -1174h-152l635 1174h-387q-40 0 -68.5 -5t-47.5 -17.5t-30 -26.5t-16 -41t-6.5 -51t-1.5 -66h-94z" />
<glyph unicode="8" horiz-adv-x="1009" d="M115 350q0 127 82 228q49 59 145 104q-93 52 -138.5 119.5t-45.5 169.5q0 151 102 244.5t254 93.5q149 0 252.5 -94t103.5 -242q0 -102 -46.5 -170.5t-141.5 -120.5q105 -57 159 -134.5t54 -191.5q0 -162 -112.5 -268t-276.5 -106q-105 0 -194.5 46t-143 131t-53.5 191z M238 360q0 -110 78 -188t188 -78q116 0 194 78t78 193q0 118 -76.5 188t-195.5 70q-116 0 -191 -73.5t-75 -189.5zM281 967q0 -105 64 -171.5t169 -66.5t169.5 66.5t64.5 171.5q0 104 -65 168.5t-169 64.5t-168.5 -64.5t-64.5 -168.5z" />
<glyph unicode="9" horiz-adv-x="1009" d="M94 895q0 171 113.5 292.5t284.5 121.5q170 0 287.5 -113.5t117.5 -282.5q0 -52 -13.5 -106t-40 -109.5t-50 -96t-58.5 -95.5l-323 -506h-146l375 575q-97 -51 -178 -51q-154 0 -261.5 108.5t-107.5 262.5zM221 905q0 -114 78.5 -192t192.5 -78q119 0 198.5 82t79.5 201 q0 116 -80.5 193t-197.5 77q-114 0 -192.5 -84.5t-78.5 -198.5z" />
<glyph unicode=":" horiz-adv-x="477" d="M154 68q0 35 25.5 60.5t60.5 25.5t60.5 -25.5t25.5 -60.5t-25.5 -60.5t-60.5 -25.5q-37 0 -61.5 24.5t-24.5 61.5zM154 717q0 37 24.5 61.5t61.5 24.5q35 0 60.5 -25.5t25.5 -60.5t-25.5 -60.5t-60.5 -25.5t-60.5 25.5t-25.5 60.5z" />
<glyph unicode=";" horiz-adv-x="477" d="M55 -375l123 553h141l-167 -553h-97zM152 717q0 35 25.5 60.5t60.5 25.5q37 0 61.5 -24.5t24.5 -61.5q0 -35 -25.5 -60.5t-60.5 -25.5t-60.5 25.5t-25.5 60.5z" />
<glyph unicode="&#x3c;" d="M68 618v113l888 408v-127l-751 -338l749 -338l2 -125z" />
<glyph unicode="=" d="M68 492v112h888v-112h-888zM68 797v112h888v-112h-888z" />
<glyph unicode="&#x3e;" d="M68 211v127l751 338l-749 336l-2 127l888 -408v-113z" />
<glyph unicode="?" horiz-adv-x="868" d="M129 989v385h80l27 -96q104 113 249 113q125 0 214 -86t89 -211q0 -62 -24.5 -116t-64 -92.5t-87 -72.5t-95 -64.5t-87 -60.5t-64 -67.5t-24.5 -79.5q0 -68 45.5 -107t114.5 -39q46 0 98 25v-111q-68 -20 -125 -20q-117 0 -195.5 67.5t-78.5 182.5q0 54 15.5 96.5 t54.5 80t63 55.5t83 55q17 11 25 16q1 0 20 12t24 16t24 16t27 18.5t24 18t25 20t20.5 19t18.5 20.5t12 19q14 35 14 74q0 84 -61 136.5t-146 52.5q-46 0 -82.5 -15.5t-60 -41.5t-38.5 -62t-21 -74.5t-6 -81.5h-107zM346 68q0 35 25.5 60.5t60.5 25.5t60.5 -25.5t25.5 -60.5 q0 -37 -24.5 -61.5t-61.5 -24.5q-35 0 -60.5 25.5t-25.5 60.5z" />
<glyph unicode="@" horiz-adv-x="1501" d="M68 678q0 147 55 278t149.5 224t225.5 147.5t278 54.5q131 0 249 -43.5t206 -121t140 -191.5t52 -248q0 -113 -32 -205q-23 -70 -62.5 -131t-103 -106t-135.5 -45q-63 0 -104 39t-44 102q-44 -69 -110 -108t-146 -39q-132 0 -209.5 98t-77.5 233q0 103 42.5 197.5 t126.5 156.5t190 62q173 0 231 -166l27 140h94l-86 -439q-12 -62 -12 -96q0 -40 21.5 -69t60.5 -29q53 0 100 40t73.5 88t43.5 101q26 79 26 172q0 155 -75.5 275.5t-202 183.5t-281.5 63q-171 0 -313 -82t-223.5 -224.5t-81.5 -313.5q0 -189 100.5 -347.5t271.5 -224.5 q115 -45 267 -45q225 0 438 103l29 -84q-214 -105 -467 -105q-207 0 -373 87t-262 248.5t-96 369.5zM504 618q0 -98 53 -168.5t148 -70.5q62 0 111 33.5t77 86.5t42.5 112t14.5 116q0 91 -48 150t-136 59q-78 0 -139.5 -49.5t-92 -121t-30.5 -147.5z" />
<glyph unicode="A" horiz-adv-x="1191" d="M-41 0v115h37q55 0 83.5 33t51.5 96l363 1007h-117v115h254l471 -1251h133v-115h-416v115h133l-121 334h-522l-80 -234q-12 -32 -12 -53q0 -15 6 -25t14 -14.5t22 -6.5t23.5 -2t25.5 0.5t22 0.5v-115h-371zM344 543h451l-232 620z" />
<glyph unicode="B" horiz-adv-x="1095" d="M125 0v115h115v1136h-115v115h426q174 0 283.5 -89t109.5 -259q0 -214 -211 -311q56 -11 92.5 -29t75.5 -57q98 -98 98 -250q0 -107 -58 -199.5t-155 -134.5q-84 -37 -223 -37h-438zM377 115h153q69 0 125.5 14.5t103 44.5t72 83t25.5 124q0 94 -51.5 162.5t-142.5 89.5 q-52 12 -134 12h-151v-530zM377 754h145q119 0 197 69.5t78 186.5q0 241 -295 241h-125v-497z" />
<glyph unicode="C" horiz-adv-x="1318" d="M66 678q0 144 46 273t129 225.5t207 153t271 56.5q255 0 397 -151l21 117h82v-383h-82q-22 153 -126.5 227t-265.5 74q-122 0 -224.5 -47t-171 -127.5t-106.5 -187t-38 -226.5q0 -251 162.5 -413.5t412.5 -162.5q84 0 164 28t133 83q54 56 60 152h82v-222 q-113 -88 -217 -129t-236 -41q-199 0 -359 90.5t-250.5 251t-90.5 359.5z" />
<glyph unicode="D" horiz-adv-x="1372" d="M125 0v115h113v1136h-113v115h475q208 0 367.5 -80t249.5 -234.5t90 -363.5q0 -186 -79.5 -343.5t-232.5 -250.5q-94 -57 -178.5 -75.5t-208.5 -18.5h-483zM377 115h164q96 0 163 7.5t132 33.5q153 61 239 208t86 318q0 263 -156.5 416t-420.5 153h-207v-1136z" />
<glyph unicode="E" horiz-adv-x="1042" d="M125 0v115h113v1136h-113v115h817v-352h-82l-41 237h-442v-487h352v-109h-352v-540h442l41 254h82v-369h-817z" />
<glyph unicode="F" horiz-adv-x="962" d="M125 0v115h117v1136h-117v115h788v-348h-77l-41 233h-414v-485h315v-113h-315v-538h121v-115h-377z" />
<glyph unicode="G" horiz-adv-x="1411" d="M88 684q0 196 81 355t233.5 253t349.5 94q258 0 403 -145l19 125h86v-416h-105q-7 67 -24 115.5t-56 87.5q-57 57 -141.5 86t-173.5 29q-120 0 -221 -47t-167 -127.5t-102.5 -185.5t-36.5 -222q0 -163 68.5 -294.5t196 -208.5t290.5 -77q82 0 151.5 19t125 57t87.5 103 t32 151q0 52 -18 74t-68 22h-115v105h328v-619h-86l-27 138q-167 -179 -438 -179q-196 0 -350.5 95t-238 256t-83.5 356z" />
<glyph unicode="H" horiz-adv-x="1415" d="M125 0v115h115v1136h-115v115h369v-115h-115v-475h661v475h-112v115h362v-115h-112v-1136h112v-115h-362v115h112v544h-661v-544h115v-115h-369z" />
<glyph unicode="I" horiz-adv-x="643" d="M139 0v115h111v1136h-111v115h365v-115h-115v-1136h115v-115h-365z" />
<glyph unicode="J" horiz-adv-x="813" d="M-2 0v326h98q6 -47 16.5 -83t31 -69t55 -50.5t82.5 -17.5q41 0 71 14t47.5 35.5t27.5 54t13.5 63.5t3.5 69v909h-116v115h370v-115h-114v-954q0 -140 -69 -230t-204 -90q-131 0 -215 103l-16 -80h-82z" />
<glyph unicode="K" horiz-adv-x="1198" d="M125 0v115h117v1136h-117v115h373v-115h-119v-526l481 473q21 21 21 31q0 9 -9 15t-24.5 7.5t-29 1.5t-30 -1t-18.5 -1v115h410v-115h-18q-70 0 -100.5 -10t-80.5 -59l-469 -457l571 -610h123v-115h-205l-622 670v-555h119v-115h-373z" />
<glyph unicode="L" horiz-adv-x="933" d="M125 0v115h111v1136h-111v115h364v-115h-114v-1136h379l47 276h78v-391h-754z" />
<glyph unicode="M" horiz-adv-x="1710" d="M125 0v115q65 2 84.5 16t19.5 74v1046h-104v115h237l492 -1092l483 1092h248v-115h-106v-1136h106v-115h-364v115h118v1022l-495 -1108h-25l-487 1089v-899q0 -27 1 -43t7 -29t11 -18.5t21 -9t30 -4t44 -0.5v-115h-321z" />
<glyph unicode="N" horiz-adv-x="1476" d="M125 0v115q34 1 50.5 3t31.5 7t20.5 18t8 31t2.5 51v1026h-113v115h217l801 -1116v883q0 32 -0.5 49.5t-6.5 33t-10.5 21t-22.5 9.5t-32.5 4.5t-48.5 0.5v115h330v-115q-30 -1 -47 -2t-30.5 -8t-19 -11t-9 -22t-3.5 -29.5v-45.5v-1133h-82l-821 1141v-914q0 -23 0.5 -37 t2 -28t4.5 -20t8 -13.5t12.5 -8t17.5 -4t23.5 -1.5t30.5 0h7.5h6.5h8v-115h-336z" />
<glyph unicode="O" horiz-adv-x="1529" d="M66 682q0 142 55 272t148.5 224.5t223 151t271.5 56.5q143 0 273 -56t223.5 -150.5t148.5 -224.5t55 -273q0 -190 -93.5 -352t-255 -257.5t-351.5 -95.5t-351 95.5t-254 257.5t-93 352zM211 680q0 -114 43 -219t116.5 -183t177 -125t218.5 -47t218 47t176 125t116 183 t43 219t-42.5 219.5t-115.5 184.5t-176.5 126t-218.5 47t-219 -47t-177 -125.5t-116 -184.5t-43 -220z" />
<glyph unicode="P" horiz-adv-x="980" d="M125 0v115h108v1134h-108v115h387q105 0 183 -20t141 -78q120 -108 120 -279q0 -187 -122.5 -287t-313.5 -100h-147v-485h121v-115h-369zM373 717h104q55 0 88.5 2.5t79 16.5t78.5 42q88 76 88 203q0 135 -84.5 201.5t-222.5 66.5h-131v-532z" />
<glyph unicode="Q" horiz-adv-x="1538" d="M66 686q0 143 55 272.5t148.5 223t222.5 149t272 55.5q141 0 271 -54t225 -146t151.5 -221t56.5 -271q0 -227 -127 -401q-60 -84 -192 -178h315v-115h-530q-8 0 -21.5 -4.5t-19.5 -5.5q-70 -13 -131 -13q-141 0 -270.5 57.5t-222.5 153.5t-148 226.5t-55 271.5zM209 676 q0 -149 75 -280.5t204.5 -210.5t279.5 -79q152 0 281 80t202.5 212.5t73.5 283.5q0 154 -72.5 286t-201 210.5t-283.5 78.5q-157 0 -286.5 -79.5t-201 -212.5t-71.5 -289z" />
<glyph unicode="R" horiz-adv-x="1101" d="M125 0v115h106v1134h-106v117h407q202 0 302 -86q57 -48 86.5 -118.5t29.5 -147.5q0 -102 -50.5 -190.5t-139.5 -137.5q-58 -33 -158 -47l371 -524h119v-115h-205l-447 637h-69v-522h108v-115h-354zM371 723h108q168 0 244 68q84 75 84 204q0 131 -79 192.5t-214 61.5 h-143v-526z" />
<glyph unicode="S" horiz-adv-x="985" d="M96 6v395h99q8 -82 29.5 -134.5t76.5 -98.5q82 -72 186 -72q109 0 183.5 73t74.5 181q0 61 -20 106.5t-61.5 77.5t-78.5 51t-98 45q-6 2 -10 3.5t-8 3.5q-47 20 -78 34t-73 36.5t-69 43t-56.5 50.5t-47 62t-28.5 74t-11 89q0 154 99 257t252 103q169 0 291 -141l20 121 h78v-393h-98q-19 154 -93 223q-78 72 -184 72q-99 0 -161 -65.5t-62 -164.5q0 -46 19.5 -86t46 -67t70.5 -54t76 -41.5t80 -35.5l21 -9q70 -30 110 -50.5t87.5 -54.5t72 -70t41.5 -90.5t17 -123.5q0 -165 -110 -272t-275 -107q-92 0 -158.5 34t-140.5 108l-29 -113h-80z" />
<glyph unicode="T" horiz-adv-x="1003" d="M35 999v367h934v-367h-80l-55 265h-265v-1149h133v-115h-393v115h123v1149h-266l-51 -265h-80z" />
<glyph unicode="U" horiz-adv-x="1351" d="M109 1251v115h362v-115h-109v-710q0 -103 16.5 -180t67.5 -134q48 -54 119.5 -87.5t143.5 -33.5q104 0 197.5 65t125.5 163q23 72 23 198v619q0 67 -21 85q-19 16 -76 15h-14v115h324v-115h-11q-65 0 -81.5 -19.5t-16.5 -86.5v-647q0 -247 -125 -377q-66 -69 -155 -106.5 t-185 -37.5q-135 0 -259.5 75.5t-172.5 197.5q-39 104 -39 246v755h-114z" />
<glyph unicode="V" horiz-adv-x="1146" d="M-41 1251v115h385v-115h-127l385 -1028l328 910q2 7 9 24.5t11 31t4 25.5q0 14 -8.5 22.5t-25.5 11.5t-29 4t-33.5 0t-23.5 -1v115h370v-115q-79 0 -110 -25t-60 -102l-422 -1124h-71l-473 1251h-109z" />
<glyph unicode="W" horiz-adv-x="1757" d="M-41 1251v115h385v-115h-127l356 -975l291 1090h84l318 -1087l286 845q2 6 7.5 20.5t8 22.5t5 20t2.5 23q0 28 -14 34.5t-45 6.5h-64v115h363v-115q-29 0 -51 -3.5t-39 -15.5t-27 -20.5t-21.5 -32t-16 -35t-15.5 -44.5q-3 -10 -5 -15l-372 -1085h-66l-315 1085 l-291 -1085h-68l-458 1251h-111z" />
<glyph unicode="X" horiz-adv-x="1140" d="M-18 0v115q60 0 90 9t48.5 27.5t53.5 71.5l318 469l-371 559h-117v115h397v-115h-112l284 -438l228 336q41 61 41 80q0 10 -9.5 15.5t-25.5 7t-30.5 1.5t-30.5 -1t-19 -1v115h387v-115q-32 -1 -52.5 -2.5t-40 -9t-29 -12.5t-25.5 -23.5t-24 -30t-30 -43.5l-274 -407 l401 -608h117v-115h-391v115h113l-324 487l-248 -373q-2 -2 -11.5 -17t-16 -25.5t-13 -23t-6.5 -18.5q0 -12 6.5 -19t19 -9.5t22 -3t25.5 0.5t19 1v-115h-370z" />
<glyph unicode="Y" horiz-adv-x="1075" d="M-43 1251v115h387v-115h-117l324 -528l268 424q33 49 33 70q0 14 -8 22.5t-23.5 11t-28 2.5t-30.5 -1t-23 -1v115h379v-115q-78 -3 -110 -22.5t-76 -87.5l-332 -518v-508h115v-115h-367v115h113v487l-398 649h-106z" />
<glyph unicode="Z" horiz-adv-x="1083" d="M45 0v98l799 1153h-643l-47 -258h-88v373h956v-102l-799 -1149h676l47 268h76v-383h-977z" />
<glyph unicode="[" horiz-adv-x="546" d="M137 -342v1708h264v-98h-139v-1514h139v-96h-264z" />
<glyph unicode="\" d="M51 1536h125l752 -1706h-125z" />
<glyph unicode="]" horiz-adv-x="546" d="M145 -246h140v1514h-140v98h265v-1708h-265v96z" />
<glyph unicode="^" d="M59 760l369 608h168l369 -608h-142l-313 508l-311 -508h-140z" />
<glyph unicode="_" d="M0 -145h1024v-113h-1024v113z" />
<glyph unicode="`" d="M356 1235h146l166 -289h-111z" />
<glyph unicode="a" horiz-adv-x="927" d="M90 246q0 120 86 195t207 75q71 0 121.5 -23t111.5 -75v117q0 91 -55 137.5t-147 46.5q-163 0 -191 -117h-94v178h6q9 0 26 -1t25 -1q15 0 43 8q114 31 199 31q63 0 118 -14t100.5 -42.5t72 -79t26.5 -116.5v-456h105v-109h-234v88q-111 -102 -251 -102 q-116 0 -195.5 72.5t-79.5 187.5zM215 252q0 -77 58.5 -125.5t136.5 -48.5q134 0 206 125v92q-49 65 -95 96t-115 31q-77 0 -134 -47t-57 -123z" />
<glyph unicode="b" horiz-adv-x="1069" d="M63 0v109h107v1146h-107v111h238v-696q64 75 137 111t168 36q179 0 287 -117t108 -297q0 -182 -107 -299.5t-288 -117.5q-96 0 -168 33t-137 104v-123h-238zM293 393q0 -126 84 -213.5t209 -87.5q128 0 206 89.5t78 219.5q0 129 -80 218.5t-208 89.5t-208.5 -93 t-80.5 -223z" />
<glyph unicode="c" horiz-adv-x="892" d="M68 399q0 117 48 211.5t139 150.5t208 56q163 0 256 -96l35 80h63v-297h-98q-9 89 -79 143.5t-163 54.5q-123 0 -197.5 -83.5t-74.5 -208.5q0 -128 80.5 -219t206.5 -91q97 0 159 45t68 138h98v-148q-123 -149 -336 -149q-180 0 -296.5 116.5t-116.5 296.5z" />
<glyph unicode="d" horiz-adv-x="1089" d="M68 403q0 178 110 296t287 118q98 0 172.5 -33t136.5 -106v577h-117v111h246v-1257h109v-109h-238v123q-71 -69 -143 -103t-164 -34q-174 0 -286.5 121t-112.5 296zM199 403q0 -129 81.5 -218t208.5 -89q131 0 209 87.5t78 219.5t-77 221t-207 89q-129 0 -211 -90 t-82 -220z" />
<glyph unicode="e" horiz-adv-x="890" d="M68 401q0 176 108 296t283 120q92 0 162.5 -34t113.5 -93.5t64.5 -135t21.5 -163.5h-620q3 -136 76 -221.5t206 -85.5q100 0 154.5 37t62.5 133h121v-100q-46 -86 -139.5 -127t-202.5 -41q-182 0 -296.5 116.5t-114.5 298.5zM203 475h497q-9 104 -75 175t-168 71 q-103 0 -169.5 -69.5t-84.5 -176.5z" />
<glyph unicode="f" horiz-adv-x="565" d="M86 0v109h104v583h-104v109h104v334q0 116 54 181.5t168 65.5q35 0 53 -2v-125q-92 0 -117.5 -29t-25.5 -122v-303h143v-109h-143v-583h143v-109h-379z" />
<glyph unicode="g" horiz-adv-x="1081" d="M68 403q0 113 48.5 207.5t138.5 150.5t204 56q99 0 169 -33.5t138 -109.5v127h233v-109h-108v-657q0 -196 -110 -304t-306 -108q-219 0 -317 135q-43 58 -70 181h123q42 -209 272 -209q129 0 206 70.5t77 197.5v145q-143 -143 -309 -143q-170 0 -279.5 116t-109.5 287z M201 395q0 -119 82.5 -204t201.5 -85q122 0 203.5 88t81.5 212t-80.5 211.5t-202.5 87.5q-128 0 -207 -90t-79 -220z" />
<glyph unicode="h" horiz-adv-x="1054" d="M92 0v109h109v1146h-109v111h238v-690q52 70 113.5 105.5t144.5 35.5q128 0 204 -78.5t76 -206.5v-423h109v-109h-238v479q0 226 -188 226q-109 0 -165 -75t-56 -188v-333h106v-109h-344z" />
<glyph unicode="i" horiz-adv-x="528" d="M96 0v109h107v585h-107v107h238v-692h108v-109h-346zM170 1149q0 29 19.5 50.5t48.5 21.5t51 -20t22 -48q0 -29 -19.5 -51.5t-47.5 -22.5q-30 0 -52 20t-22 50z" />
<glyph unicode="j" horiz-adv-x="481" d="M84 -252q121 25 121 191v755h-121v107h250v-875q0 -260 -250 -309v131zM184 1155q0 28 22.5 47t51.5 19q30 0 49 -23t19 -53q0 -28 -22.5 -47t-51.5 -19q-30 0 -49 23t-19 53z" />
<glyph unicode="k" horiz-adv-x="858" d="M76 0v109h110v1146h-110v111h241v-950l220 219q32 32 32 43q0 6 -7 10t-18.5 5t-21.5 1t-21.5 -1t-13.5 -1v109h338v-109q-69 0 -98 -11t-78 -58l-209 -207l283 -307h113v-109h-187l-332 354v-245h97v-109h-338z" />
<glyph unicode="l" horiz-adv-x="495" d="M76 0v109h106v1146h-106v111h237v-1257h113v-109h-350z" />
<glyph unicode="m" horiz-adv-x="1513" d="M92 0v109h103v581h-103v111h232v-111q102 127 254 127q84 0 139 -33t88 -108q51 77 112 109t156 32q130 0 195 -80t65 -213v-415h105v-109h-234v467q0 242 -172 242q-57 0 -98 -24t-63 -65.5t-32 -87.5t-10 -100v-323h97v-109h-228v469q0 41 -3 72.5t-13.5 64.5 t-28.5 54.5t-50 35t-75 13.5q-59 0 -101 -25.5t-63 -69.5t-30.5 -91.5t-9.5 -102.5v-311h100v-109h-332z" />
<glyph unicode="n" horiz-adv-x="1052" d="M92 0v109h107v581h-107v111h238v-111q54 65 114.5 96t141.5 31q127 0 204.5 -78.5t77.5 -206.5v-423h109v-109h-240v479q0 226 -188 226q-109 0 -164 -75.5t-55 -187.5v-333h104v-109h-342z" />
<glyph unicode="o" horiz-adv-x="974" d="M68 401q0 174 122.5 295t296.5 121t296 -121t122 -295t-121.5 -294.5t-296.5 -120.5q-174 0 -296.5 120.5t-122.5 294.5zM203 401q0 -122 81.5 -210.5t202.5 -88.5t203 88.5t82 210.5q0 120 -82.5 208.5t-202.5 88.5t-202 -88.5t-82 -208.5z" />
<glyph unicode="p" horiz-adv-x="1087" d="M74 -244h110v936h-110v109h241v-135q60 79 134 115t174 36q178 0 287.5 -121.5t109.5 -300.5q0 -170 -110 -289.5t-279 -119.5q-101 0 -172.5 35.5t-143.5 113.5v-379h115v-108h-356v108zM311 412q0 -129 79.5 -221.5t207.5 -92.5q124 0 206.5 89t82.5 214 q0 130 -79.5 222t-207.5 92q-127 0 -208 -87.5t-81 -215.5z" />
<glyph unicode="q" horiz-adv-x="1087" d="M68 395q0 181 110.5 301.5t288.5 120.5q185 0 305 -147v131h242v-109h-111v-936h111v-108h-357v108h115v389q-64 -81 -139 -120t-176 -39q-169 0 -279 119.5t-110 289.5zM201 401q0 -125 82 -214t206 -89q128 0 207.5 92.5t79.5 221.5q0 128 -81 215.5t-208 87.5 q-129 0 -207.5 -91.5t-78.5 -222.5z" />
<glyph unicode="r" horiz-adv-x="632" d="M92 0v109h109v583h-109v109h238v-170q54 98 114 143t164 49v-131q-36 4 -55 4q-63 0 -108 -25t-69 -69t-35 -94t-11 -109v-290h108v-109h-346z" />
<glyph unicode="s" horiz-adv-x="745" d="M88 0v262h86q12 -88 63.5 -136t139.5 -48q67 0 108 34t41 99q0 39 -18.5 66.5t-48.5 41.5t-68 27t-78 21.5t-78 25.5t-68 38.5t-48.5 61.5t-18.5 93q0 110 73.5 170.5t184.5 60.5q63 0 107 -18t88 -62l14 64h62v-242h-76q-14 77 -59 123.5t-121 46.5q-58 0 -99 -34.5 t-41 -90.5q0 -40 24 -67t62 -42t83.5 -27t91.5 -28.5t84 -41t62 -69.5t24 -108q0 -111 -77 -173t-190 -62q-68 0 -118.5 19t-104.5 63l-20 -68h-66z" />
<glyph unicode="t" horiz-adv-x="559" d="M82 692v109h106v225l129 59v-284h154v-109h-154v-481q0 -111 70 -111q32 0 84 31v-115q-65 -30 -119 -30q-80 0 -122 42t-42 122v542h-106z" />
<glyph unicode="u" horiz-adv-x="1030" d="M72 692v109h237v-477q0 -228 191 -228q109 0 164 75t55 187v334h-105v109h236v-692h106v-109h-237v121q-59 -70 -117.5 -102.5t-142.5 -32.5q-127 0 -203 77.5t-76 204.5v424h-108z" />
<glyph unicode="v" horiz-adv-x="872" d="M-20 692v109h346v-109h-105l232 -514l188 430q18 42 18 56q0 11 -7 18t-20.5 9t-24.5 2.5t-27 -0.5t-19 -1v109h316v-109q-70 -1 -93.5 -20t-54.5 -88l-264 -584h-66l-321 692h-98z" />
<glyph unicode="w" horiz-adv-x="1316" d="M-20 692v109h356v-109h-113l205 -497l209 606h76l217 -606l160 407l7 17.5t8 22t3 17.5t-4 14.5t-11.5 10t-15 5.5t-18.5 3t-18.5 1t-17.5 -0.5t-13 -0.5v109h313v-109q-67 -4 -90 -24.5t-50 -85.5q-3 -7 -5 -11l-248 -571h-70l-209 588l-190 -588h-82l-293 692h-106z " />
<glyph unicode="x" horiz-adv-x="901" d="M4 0v109q65 5 99.5 17.5t68.5 53.5l197 230l-242 278h-100v113h354v-113h-88l180 -215q130 162 148 182q8 8 8 17q0 6 -6 10t-16 5.5t-18.5 1.5t-19 -0.5t-12.5 -0.5v113h305v-113q-68 0 -99.5 -15.5t-74.5 -70.5l-153 -192l258 -301h90v-109h-348v109h92l-203 239 q-3 -4 -53 -62t-86.5 -104t-36.5 -55q0 -8 7 -12.5t19.5 -5.5t23 -1.5t23.5 0.5t15 1v-109h-332z" />
<glyph unicode="y" horiz-adv-x="899" d="M-20 692v109h364v-109h-117l236 -526q213 481 213 496q0 11 -7.5 18t-22.5 9.5t-25 3t-28.5 0t-19.5 -0.5v109h347v-109q-69 -5 -98.5 -21.5t-55.5 -74.5l-387 -850h194v-111h-366l186 398l-313 659h-100z" />
<glyph unicode="z" horiz-adv-x="759" d="M55 0v109l469 583h-350l-39 -151h-65v260h618v-109l-473 -583h363l51 192h59v-301h-633z" />
<glyph unicode="{" d="M307 457v100q67 17 92 64t25 122v369q0 85 19.5 140.5t62.5 85.5t99 41.5t140 11.5v-107q-75 -1 -115 -15.5t-59.5 -54t-19.5 -114.5v-365q0 -91 -25.5 -143t-99.5 -90q38 -19 63 -43t38.5 -54.5t18.5 -63t5 -77.5v-348q0 -113 40.5 -152.5t153.5 -39.5v-107h-40 q-158 0 -219.5 71t-61.5 232v342q0 80 -24 127.5t-93 67.5z" />
<glyph unicode="|" d="M449 -512v2048h126v-2048h-126z" />
<glyph unicode="}" d="M297 -276q110 2 152.5 40t42.5 146v362q0 94 24 146t100 88q-73 37 -98.5 91.5t-25.5 145.5v349q0 113 -41 152.5t-154 39.5v107h39q158 0 219 -71.5t61 -232.5v-342q0 -80 24 -127.5t95 -66.5v-98q-68 -19 -93.5 -65t-25.5 -122v-370q0 -146 -66 -212.5t-212 -66.5h-41 v107z" />
<glyph unicode="~" horiz-adv-x="1366" d="M193 1251q26 51 48.5 86t55.5 70t75.5 52.5t94.5 17.5q51 0 112.5 -22t109 -49t106.5 -49t106 -22q66 0 110 38t85 108l78 -47q-112 -222 -287 -222q-61 0 -139.5 35.5t-155.5 71t-133 35.5q-64 0 -108.5 -41.5t-82.5 -110.5z" />
<glyph unicode="&#xa1;" horiz-adv-x="512" d="M160 731q0 35 25.5 60.5t60.5 25.5t60.5 -25.5t25.5 -60.5t-25.5 -61.5t-60.5 -26.5q-37 0 -61.5 25.5t-24.5 62.5zM203 526h90l57 -1095h-147v1095z" />
<glyph unicode="&#xa2;" horiz-adv-x="1009" d="M152 709q0 90 34 172t99 137q47 38 93.5 55t117.5 29v131h84v-131q62 -9 104 -29.5t84 -64.5l31 71h65v-276h-96q-15 90 -56.5 131.5t-131.5 60.5v-575q87 12 135.5 50t52.5 120h96v-141q-75 -67 -132.5 -95.5t-151.5 -40.5v-125h-84v125q-66 12 -109.5 28t-89.5 52 q-72 57 -108.5 139t-36.5 177zM276 709q0 -106 58 -178t162 -105v567q-104 -23 -162 -99.5t-58 -184.5z" />
<glyph unicode="&#xa3;" horiz-adv-x="1009" d="M35 584v84h164q-28 51 -41.5 78t-26 71t-12.5 86q0 178 118.5 292t297.5 114q107 0 186 -38t147 -122l29 108h80v-372h-92q-7 78 -28 132.5t-71 102.5q-90 84 -229 84q-126 0 -215.5 -83.5t-89.5 -209.5q0 -45 16.5 -91.5t31.5 -72t50 -79.5h324v-84h-279q51 -84 51 -160 q0 -81 -61 -168q53 -6 106 -31.5t88 -52.5t77.5 -48.5t80.5 -21.5q72 0 107.5 56t40.5 135h106q-3 -63 -18 -116.5t-44.5 -98.5t-79.5 -70.5t-116 -25.5q-56 0 -112 26t-94.5 56.5t-91.5 56.5t-103 26q-66 0 -107.5 -41t-50.5 -108h-102q18 103 62.5 161.5t139.5 96.5 q54 73 54 133q0 34 -15.5 73t-29.5 60.5t-43 61.5h-205z" />
<glyph unicode="&#xa4;" horiz-adv-x="1366" d="M121 1212l74 72l190 -190q71 56 141.5 82t157.5 26q159 0 295 -106l190 188l72 -72l-190 -190q106 -137 106 -293q0 -151 -106 -291l192 -192l-72 -72l-192 193q-134 -109 -295 -109q-153 0 -295 104l-190 -188l-72 72l190 190q-108 133 -108 295q0 154 104 289zM326 729 q0 -148 104 -252t252 -104t253 103.5t105 252.5q0 150 -104.5 255.5t-253.5 105.5q-148 0 -252 -106t-104 -255z" />
<glyph unicode="&#xa5;" horiz-adv-x="1009" d="M-6 1251v115h385v-115h-117l133 -276h244q113 220 113 242q0 14 -8 22.5t-23.5 11t-28 2.5t-30.5 -1t-23 -1v115h379v-115q-77 -3 -113 -24.5t-71 -87.5l-86 -164h202v-84h-243l-138 -264h295v-84h-297v-428h115v-115h-367v115h113v428h-281v84h269l-133 264h-234v84h191 l-140 276h-106zM436 891l82 -168l82 168h-164z" />
<glyph unicode="&#xa6;" d="M446 313h132v-825h-132v825zM446 686v850h132v-850h-132z" />
<glyph unicode="&#xa7;" horiz-adv-x="960" d="M70 629q0 87 44.5 147.5t127.5 106.5q-47 50 -69.5 94t-22.5 102q0 127 100 214t229 87q135 0 256 -108l21 88h82v-348h-82q-17 59 -37.5 102.5t-52.5 81.5t-78.5 58t-106.5 20q-81 0 -136.5 -53t-55.5 -134q0 -33 9 -59t20 -42t37 -33.5t41.5 -25t52.5 -24.5 q22 -9 61 -29t53 -26q18 -9 58.5 -27t64.5 -29.5t60 -31.5t58 -40t44 -46t32.5 -58t10.5 -69q0 -140 -156 -254q64 -45 95.5 -97.5t31.5 -125.5q0 -91 -56 -163t-138.5 -108.5t-171.5 -36.5q-91 0 -161.5 29.5t-139.5 93.5l-15 -90h-80v375h80q23 -136 98 -214.5t207 -78.5 q60 0 112.5 18.5t90 62t37.5 105.5q0 30 -11.5 56t-26 42.5t-42.5 34.5t-45 26.5t-51 23.5q-11 5 -93 41t-121.5 54.5t-98 51.5t-89.5 60q-77 69 -77 176zM213 649q0 -41 12 -71t39.5 -52.5t49.5 -34.5t64 -32q9 -4 13 -6l242 -111q119 81 119 170q0 33 -12 61t-27.5 46.5 t-44.5 38t-48.5 29.5t-54.5 26l-237 110q-57 -33 -86 -73.5t-29 -100.5z" />
<glyph unicode="&#xa8;" d="M266 1077q0 32 17.5 56t46.5 24q32 0 56 -16.5t24 -46.5h2q0 -32 -17 -56t-47 -24q-32 0 -57 16.5t-25 46.5zM610 1081q0 33 17.5 56.5t48.5 23.5q34 0 58 -16.5t24 -48.5q0 -30 -17.5 -55t-46.5 -25q-32 0 -58 17.5t-26 47.5z" />
<glyph unicode="&#xa9;" horiz-adv-x="1599" d="M96 682q0 143 56 273.5t150.5 225t225 150t273.5 55.5t273.5 -55.5t225 -150t150 -225t55.5 -273.5t-55.5 -273.5t-150 -225t-225 -150.5t-273.5 -56q-190 0 -352.5 95t-257.5 257.5t-95 352.5zM186 682q0 -168 81.5 -310.5t223.5 -226.5t310 -84q125 0 239 50t196 133.5 t130.5 198t48.5 239.5q0 168 -81.5 311t-223 227.5t-309.5 84.5t-310 -84.5t-223.5 -227.5t-81.5 -311zM391 680q0 184 118 305t302 121q150 0 246 -84l10 61h66v-239h-66v6q-37 172 -240 172q-147 0 -240 -96.5t-93 -243.5q0 -150 102 -241t254 -91q40 0 76 7.5t69 24 t52.5 48t19.5 74.5h66v-139l-3 -3q-71 -53 -138.5 -77.5t-151.5 -24.5q-188 0 -318.5 117t-130.5 303z" />
<glyph unicode="&#xaa;" horiz-adv-x="673" d="M72 987q0 83 62 135t147 52q87 0 153 -58v64q0 57 -37 85.5t-96 28.5q-53 0 -82 -15t-43 -62h-76v131q7 0 22.5 -1t22.5 -1q4 0 9 1t11 2.5t9 2.5q75 20 139 20q44 0 82.5 -9.5t71.5 -29t52.5 -54.5t19.5 -81v-293h71v-86h-176v49q-68 -59 -166 -59q-81 0 -138.5 49 t-57.5 129zM86 608v68h518v-68h-518zM172 993q0 -50 38 -79t89 -29q86 0 135 78v55q-33 42 -62 61t-75 19q-49 0 -87 -28.5t-38 -76.5z" />
<glyph unicode="&#xab;" horiz-adv-x="714" d="M90 416l174 399h131l-176 -399l176 -387h-131zM360 416l177 399h131l-176 -399l176 -387h-131z" />
<glyph unicode="&#xac;" d="M68 432v115h888v-547h-127v432h-761z" />
<glyph unicode="&#xad;" horiz-adv-x="452" d="M0 373v106h453v-106h-453z" />
<glyph unicode="&#xae;" d="M102 1153q0 169 120.5 289.5t289.5 120.5q170 0 290 -120t120 -290q0 -169 -120.5 -289.5t-289.5 -120.5t-289.5 120.5t-120.5 289.5zM156 1153q0 -148 104 -252t252 -104t252 104t104 252t-104 252t-252 104t-252 -104t-104 -252zM375 942v62h31v301h-31v61h131 q61 0 98 -29t37 -88q0 -43 -21 -68.5t-65 -47.5l-4 -3l90 -126h41v-62h-80l-129 184v-122h31v-62h-129zM473 1180h19q81 0 81 65q0 31 -19.5 45.5t-51.5 14.5h-29v-125z" />
<glyph unicode="&#xaf;" d="M246 971v98h532v-98h-532z" />
<glyph unicode="&#xb0;" d="M227 1096q0 116 84 197t201 81t201 -81t84 -197t-84.5 -197.5t-200.5 -81.5t-200.5 81.5t-84.5 197.5zM311 1096q0 -82 59 -138.5t142 -56.5q81 0 141 57t60 138q0 82 -59 139t-142 57t-142 -57t-59 -139z" />
<glyph unicode="&#xb1;" d="M68 143v117h888v-117h-888zM68 702v119h381v357h126v-357h381v-119h-381v-356h-126v356h-381z" />
<glyph unicode="&#xb2;" horiz-adv-x="661" d="M72 1075q0 102 74 165t178 63q109 0 179 -63t70 -171q0 -47 -15 -91.5t-46 -87t-56.5 -70.5t-68.5 -70q-76 -73 -170 -154h191q69 0 83 15.5t16 79.5q1 10 1 16h67v-193h-487v78q105 88 184 162q45 41 70.5 66.5t62 69t54.5 87.5t18 88q0 71 -45 113.5t-117 42.5 q-62 0 -108.5 -39.5t-46.5 -100.5q0 -83 96 -139l-57 -72q-127 84 -127 205z" />
<glyph unicode="&#xb3;" horiz-adv-x="661" d="M82 567v99q53 -41 98.5 -61.5t100.5 -20.5q77 0 129.5 49.5t52.5 126.5q0 70 -49.5 114t-120.5 44q-31 0 -82 -15v66l229 243h-196q-26 0 -43 -1t-28.5 -7.5t-17 -11.5t-8.5 -21.5t-3.5 -28t-0.5 -40.5h-61v188h471v-73l-219 -232q101 0 167 -62t66 -163q0 -114 -80 -185 t-196 -71q-96 0 -209 63z" />
<glyph unicode="&#xb4;" d="M356 946l166 289h146l-201 -289h-111z" />
<glyph unicode="&#xb6;" horiz-adv-x="1155" d="M41 999q0 111 58.5 203t160.5 129q98 35 227 35h525v-100h-117v-1471h-111v1471h-223v-1471h-112v846h-31q-163 0 -270 98.5t-107 259.5z" />
<glyph unicode="&#xb7;" horiz-adv-x="356" d="M55 698q0 51 36 87t87 36t87 -36t36 -87t-36 -87t-87 -36t-87 36t-36 87z" />
<glyph unicode="&#xb8;" d="M369 -301h98q19 -59 76 -59q33 0 55.5 21t22.5 54t-22.5 53.5t-55.5 20.5q-35 0 -64 -29l-61 62l71 178h95l-52 -125q12 2 37 2q65 0 108.5 -45.5t43.5 -110.5q0 -76 -52 -125t-128 -49q-70 0 -118 41.5t-54 110.5z" />
<glyph unicode="&#xb9;" horiz-adv-x="669" d="M184 1163v72q131 25 191 80v-719h90v-82h-272v82h86v567h-95z" />
<glyph unicode="&#xba;" horiz-adv-x="673" d="M41 1092q0 119 87 199.5t208 80.5t209 -80.5t88 -199.5q0 -121 -87.5 -202t-209.5 -81q-120 0 -207.5 81.5t-87.5 201.5zM55 608v68h563v-68h-563zM147 1090q0 -78 55.5 -133.5t133.5 -55.5t134 55.5t56 133.5q0 80 -55 135t-135 55q-78 0 -133.5 -56t-55.5 -134z" />
<glyph unicode="&#xbb;" horiz-adv-x="747" d="M86 29l176 387l-176 399h131l174 -399l-174 -387h-131zM358 29l177 387l-177 399h129l177 -399l-177 -387h-129z" />
<glyph unicode="&#xbc;" horiz-adv-x="1568" d="M184 1163v72q131 25 191 80v-719h90v-82h-272v82h86v567h-95zM291 0l926 1290h94l-928 -1290h-92zM977 236v69l309 469h90v-465h123v-73h-123v-154h99v-82h-289v82h96v154h-305zM1065 309h217v330z" />
<glyph unicode="&#xbd;" horiz-adv-x="1572" d="M184 1163v72q131 25 191 80v-719h90v-82h-272v82h86v567h-95zM244 0l927 1290h93l-928 -1290h-92zM985 559q0 102 74 164.5t178 62.5q109 0 179.5 -62.5t70.5 -170.5q0 -47 -15.5 -92t-46.5 -87.5t-58 -71.5t-69 -69q-47 -47 -168 -151h191q69 0 83 15t16 77q1 10 1 16 h68v-190h-488v78q84 70 185 158q97 92 132 137q73 94 73 178q0 71 -45 113.5t-117 42.5q-64 0 -110 -39.5t-46 -102.5q0 -83 96 -139l-57 -72q-127 84 -127 205z" />
<glyph unicode="&#xbe;" horiz-adv-x="1570" d="M82 567v99q53 -41 98.5 -61.5t100.5 -20.5q77 0 129.5 49.5t52.5 126.5q0 70 -49.5 114t-120.5 44q-31 0 -82 -15v66l229 243h-196q-26 0 -43 -1t-28.5 -7.5t-17 -11.5t-8.5 -21.5t-3.5 -28t-0.5 -40.5h-61v188h471v-73l-219 -232q101 0 167 -62t66 -163q0 -114 -80 -185 t-196 -71q-96 0 -209 63zM303 0l928 1290h92l-928 -1290h-92zM981 236v69l309 469h90v-465h125v-73h-125v-154h99v-82h-287v82h94v154h-305zM1071 309h215v330z" />
<glyph unicode="&#xbf;" horiz-adv-x="868" d="M80 -297q0 63 24.5 117t64 92.5t87 72t95 64t87 60.5t64 68t24.5 81q0 67 -45.5 106t-113.5 39q-45 0 -99 -26v110q79 23 125 23q117 0 196 -68.5t79 -183.5q0 -59 -25 -109t-65 -85.5t-88 -67t-96.5 -61t-88.5 -59.5t-65 -69.5t-25 -85.5q0 -83 62 -134.5t147 -51.5 q58 0 100 23t64.5 63.5t32.5 87t10 101.5h108v-388h-80l-28 99q-100 -115 -248 -115q-125 0 -214 86t-89 211zM348 731q0 35 25.5 60.5t60.5 25.5t61.5 -25.5t26.5 -60.5q0 -37 -25.5 -62.5t-62.5 -25.5q-35 0 -60.5 26.5t-25.5 61.5z" />
<glyph unicode="&#xc0;" horiz-adv-x="1191" d="M-41 0v115h37q55 0 83.5 33t51.5 96l363 1007h-117v115h254l471 -1251h133v-115h-416v115h133l-121 334h-522l-80 -234q-12 -32 -12 -53q0 -15 6 -25t14 -14.5t22 -6.5t23.5 -2t25.5 0.5t22 0.5v-115h-371zM225 1706h158l256 -231h-127zM344 543h451l-232 620z" />
<glyph unicode="&#xc1;" horiz-adv-x="1191" d="M-41 0v115h37q55 0 83.5 33t51.5 96l363 1007h-117v115h254l471 -1251h133v-115h-416v115h133l-121 334h-522l-80 -234q-12 -32 -12 -53q0 -15 6 -25t14 -14.5t22 -6.5t23.5 -2t25.5 0.5t22 0.5v-115h-371zM344 543h451l-232 620zM459 1475l256 231h155l-284 -231h-127z " />
<glyph unicode="&#xc2;" horiz-adv-x="1191" d="M-41 0v115h37q55 0 83.5 33t51.5 96l363 1007h-117v115h254l471 -1251h133v-115h-416v115h133l-121 334h-522l-80 -234q-12 -32 -12 -53q0 -15 6 -25t14 -14.5t22 -6.5t23.5 -2t25.5 0.5t22 0.5v-115h-371zM238 1528l270 227h106l258 -227h-143l-168 135l-180 -135h-143z M344 543h451l-232 620z" />
<glyph unicode="&#xc3;" horiz-adv-x="1191" d="M-41 0v115h37q55 0 83.5 33t51.5 96l363 1007h-117v115h254l471 -1251h133v-115h-416v115h133l-121 334h-522l-80 -234q-12 -32 -12 -53q0 -15 6 -25t14 -14.5t22 -6.5t23.5 -2t25.5 0.5t22 0.5v-115h-371zM258 1507q8 84 51 137.5t123 53.5q37 0 75 -16.5t63 -36 t55.5 -36t54.5 -16.5q55 0 63 82h109q-3 -80 -45 -136t-119 -56q-42 0 -87 26t-86 52t-73 26q-59 0 -71 -80h-113zM344 543h451l-232 620z" />
<glyph unicode="&#xc4;" horiz-adv-x="1191" d="M-41 0v115h37q55 0 83.5 33t51.5 96l363 1007h-117v115h254l471 -1251h133v-115h-416v115h133l-121 334h-522l-80 -234q-12 -32 -12 -53q0 -15 6 -25t14 -14.5t22 -6.5t23.5 -2t25.5 0.5t22 0.5v-115h-371zM307 1602q0 31 18 57.5t48 26.5q32 0 58 -18t26 -50t-18 -57 t-48 -25q-33 0 -58.5 17.5t-25.5 48.5zM344 543h451l-232 620zM653 1604q0 33 17.5 58.5t48.5 25.5q33 0 58.5 -18t25.5 -50t-18 -57t-48 -25q-33 0 -58.5 17.5t-25.5 48.5z" />
<glyph unicode="&#xc5;" horiz-adv-x="1191" d="M-41 0v115h37q55 0 83.5 33t51.5 96l363 1007h-117v115h254l471 -1251h133v-115h-416v115h133l-121 334h-522l-80 -234q-12 -32 -12 -53q0 -15 6 -25t14 -14.5t22 -6.5t23.5 -2t25.5 0.5t22 0.5v-115h-371zM344 543h451l-232 620zM375 1663q0 69 48.5 118.5t117.5 49.5 t118.5 -48.5t49.5 -117.5q0 -68 -48 -119t-116 -51q-70 0 -120 49t-50 119zM446 1665q0 -40 27.5 -68t67.5 -28q39 0 65.5 29.5t26.5 68.5q0 38 -28.5 64t-65.5 26q-38 0 -65.5 -27t-27.5 -65z" />
<glyph unicode="&#xc6;" horiz-adv-x="1572" d="M-41 0v115q42 1 70 10.5t50.5 34t33.5 43t34 63.5l512 985h-129v115h943v-354h-82l-41 239h-445v-485h359v-104h-359v-547h445l41 252h82v-367h-814v115h107v356h-401l-144 -270q-18 -31 -18 -51q0 -13 7.5 -21.5t23 -11t26.5 -3.5t29.5 0t21.5 1v-115h-352zM414 565h352 v686z" />
<glyph unicode="&#xc7;" horiz-adv-x="1318" d="M66 678q0 144 46 273t129 225.5t207 153t271 56.5q255 0 397 -151l21 117h82v-383h-82q-22 153 -126.5 227t-265.5 74q-122 0 -224.5 -47t-171 -127.5t-106.5 -187t-38 -226.5q0 -251 162.5 -413.5t412.5 -162.5q84 0 164 28t133 83q32 33 44.5 67t15.5 85h82v-222 q-114 -88 -217 -129t-236 -41l-41 -102q12 2 37 2q65 0 108 -45.5t43 -110.5q0 -76 -52 -125t-128 -49q-70 0 -118 41.5t-54 110.5h98q19 -59 76 -59q33 0 55.5 21t22.5 54t-22.5 53.5t-55.5 20.5q-34 0 -63 -29l-62 62l66 162q-272 31 -441 225t-169 469z" />
<glyph unicode="&#xc8;" horiz-adv-x="1042" d="M125 0v115h113v1136h-113v115h817v-352h-82l-41 237h-442v-487h352v-109h-352v-540h442l41 254h82v-369h-817zM219 1706h158l256 -231h-129z" />
<glyph unicode="&#xc9;" horiz-adv-x="1042" d="M125 0v115h113v1136h-113v115h817v-352h-82l-41 237h-442v-487h352v-109h-352v-540h442l41 254h82v-369h-817zM451 1475l256 231h157l-284 -231h-129z" />
<glyph unicode="&#xca;" horiz-adv-x="1042" d="M125 0v115h113v1136h-113v115h817v-352h-82l-41 237h-442v-487h352v-109h-352v-540h442l41 254h82v-369h-817zM246 1528l270 227h107l256 -227h-144l-168 135l-178 -135h-143z" />
<glyph unicode="&#xcb;" horiz-adv-x="1042" d="M125 0v115h113v1136h-113v115h817v-352h-82l-41 237h-442v-487h352v-109h-352v-540h442l41 254h82v-369h-817zM301 1602q0 31 18 57.5t48 26.5q32 0 57 -18t25 -50t-17 -57t-49 -25t-57 18t-25 48zM647 1604q0 33 17.5 58.5t48.5 25.5q33 0 58.5 -18t25.5 -50t-18 -57 t-50 -25t-57 18t-25 48z" />
<glyph unicode="&#xcc;" horiz-adv-x="643" d="M6 1706h156l256 -231h-127zM139 0v115h111v1136h-111v115h365v-115h-115v-1136h115v-115h-365z" />
<glyph unicode="&#xcd;" horiz-adv-x="643" d="M139 0v115h111v1136h-111v115h365v-115h-115v-1136h115v-115h-365zM223 1475l256 231h158l-285 -231h-129z" />
<glyph unicode="&#xce;" horiz-adv-x="643" d="M37 1528l244 227h94l231 -227h-129l-151 135l-160 -135h-129zM139 0v115h111v1136h-111v115h365v-115h-115v-1136h115v-115h-365z" />
<glyph unicode="&#xcf;" horiz-adv-x="643" d="M74 1602q0 31 17.5 57.5t47.5 26.5q32 0 57 -18t25 -50q0 -33 -17 -57.5t-48 -24.5q-32 0 -57 18t-25 48zM139 0v115h111v1136h-111v115h365v-115h-115v-1136h115v-115h-365zM420 1604q0 33 17 58.5t48 25.5q33 0 58.5 -18t25.5 -50t-17.5 -57t-49.5 -25t-57 18t-25 48z " />
<glyph unicode="&#xd0;" horiz-adv-x="1372" d="M125 0v115h113v510h-113v114h113v512h-113v115h473q318 0 512.5 -182.5t194.5 -497.5q0 -165 -63.5 -309.5t-188.5 -241.5q-99 -76 -204.5 -105.5t-242.5 -29.5h-481zM377 115h162q148 0 244 23t186 100q190 165 190 444q0 261 -156.5 415t-418.5 154h-207v-512h358v-114 h-358v-510z" />
<glyph unicode="&#xd1;" horiz-adv-x="1476" d="M125 0v115q34 1 50.5 3t31.5 7t20.5 18t8 31t2.5 51v1026h-113v115h217l801 -1116v883q0 32 -0.5 49.5t-6.5 33t-10.5 21t-22.5 9.5t-32.5 4.5t-48.5 0.5v115h330v-115q-30 -1 -47 -2t-30.5 -8t-19 -11t-9 -22t-3.5 -29.5v-45.5v-1133h-82l-821 1141v-914q0 -23 0.5 -37 t2 -28t4.5 -20t8 -13.5t12.5 -8t17.5 -4t23.5 -1.5t30.5 0h7.5h6.5h8v-115h-336zM442 1507q7 85 50 138t124 53q37 0 74 -16.5t62.5 -36t56 -36t55.5 -16.5q55 0 64 82h106q-3 -80 -45 -136t-119 -56q-41 0 -85 26t-85 52t-75 26q-60 0 -72 -80h-111z" />
<glyph unicode="&#xd2;" horiz-adv-x="1529" d="M66 682q0 142 55 272t148.5 224.5t223 151t271.5 56.5q143 0 273 -56t223.5 -150.5t148.5 -224.5t55 -273q0 -190 -93.5 -352t-255 -257.5t-351.5 -95.5t-351 95.5t-254 257.5t-93 352zM211 680q0 -114 43 -219t116.5 -183t177 -125t218.5 -47t218 47t176 125t116 183 t43 219t-42.5 219.5t-115.5 184.5t-176.5 126t-218.5 47t-219 -47t-177 -125.5t-116 -184.5t-43 -220zM492 1706h155l256 -231h-127z" />
<glyph unicode="&#xd3;" horiz-adv-x="1529" d="M66 682q0 142 55 272t148.5 224.5t223 151t271.5 56.5q143 0 273 -56t223.5 -150.5t148.5 -224.5t55 -273q0 -190 -93.5 -352t-255 -257.5t-351.5 -95.5t-351 95.5t-254 257.5t-93 352zM211 680q0 -114 43 -219t116.5 -183t177 -125t218.5 -47t218 47t176 125t116 183 t43 219t-42.5 219.5t-115.5 184.5t-176.5 126t-218.5 47t-219 -47t-177 -125.5t-116 -184.5t-43 -220zM627 1475l256 231h157l-284 -231h-129z" />
<glyph unicode="&#xd4;" horiz-adv-x="1529" d="M66 682q0 142 55 272t148.5 224.5t223 151t271.5 56.5q143 0 273 -56t223.5 -150.5t148.5 -224.5t55 -273q0 -190 -93.5 -352t-255 -257.5t-351.5 -95.5t-351 95.5t-254 257.5t-93 352zM211 680q0 -114 43 -219t116.5 -183t177 -125t218.5 -47t218 47t176 125t116 183 t43 219t-42.5 219.5t-115.5 184.5t-176.5 126t-218.5 47t-219 -47t-177 -125.5t-116 -184.5t-43 -220zM449 1528l270 227h106l256 -227h-143l-168 135l-178 -135h-143z" />
<glyph unicode="&#xd5;" horiz-adv-x="1529" d="M66 682q0 142 55 272t148.5 224.5t223 151t271.5 56.5q143 0 273 -56t223.5 -150.5t148.5 -224.5t55 -273q0 -190 -93.5 -352t-255 -257.5t-351.5 -95.5t-351 95.5t-254 257.5t-93 352zM211 680q0 -114 43 -219t116.5 -183t177 -125t218.5 -47t218 47t176 125t116 183 t43 219t-42.5 219.5t-115.5 184.5t-176.5 126t-218.5 47t-219 -47t-177 -125.5t-116 -184.5t-43 -220zM469 1507q8 84 50.5 137.5t123.5 53.5q37 0 74.5 -16.5t62 -36t55 -36t56.5 -16.5q55 0 63 82h107q-3 -80 -43.5 -136t-118.5 -56q-43 0 -88 26t-85.5 52t-74.5 26 q-57 0 -69 -80h-113z" />
<glyph unicode="&#xd6;" horiz-adv-x="1529" d="M66 682q0 142 55 272t148.5 224.5t223 151t271.5 56.5q143 0 273 -56t223.5 -150.5t148.5 -224.5t55 -273q0 -190 -93.5 -352t-255 -257.5t-351.5 -95.5t-351 95.5t-254 257.5t-93 352zM211 680q0 -114 43 -219t116.5 -183t177 -125t218.5 -47t218 47t176 125t116 183 t43 219t-42.5 219.5t-115.5 184.5t-176.5 126t-218.5 47t-219 -47t-177 -125.5t-116 -184.5t-43 -220zM518 1602q0 32 18 58t48 26q32 0 57 -18t25 -50t-17 -57t-49 -25t-57 18t-25 48zM864 1604q0 33 17.5 58.5t48.5 25.5q33 0 58.5 -18t25.5 -50t-18 -57t-50 -25t-57 18 t-25 48z" />
<glyph unicode="&#xd7;" d="M164 375l270 270l-270 270l80 78l268 -268l270 268l78 -78l-268 -270l268 -270l-78 -78l-270 268l-268 -268z" />
<glyph unicode="&#xd8;" horiz-adv-x="1529" d="M70 680q0 143 55.5 274t149.5 225.5t224 150.5t273 56q241 0 436 -157l135 135l80 -80l-135 -135q180 -195 180 -469q0 -143 -54.5 -273t-147 -224t-222 -150t-272.5 -56q-265 0 -471 185l-141 -142l-80 80l141 142q-151 170 -151 438zM215 676q0 -191 107 -334l790 791 q-85 63 -163.5 93.5t-174.5 30.5q-115 0 -219.5 -47.5t-178.5 -127t-117.5 -186t-43.5 -220.5zM395 254q167 -150 375 -150q115 0 218 45t175.5 121.5t115 181t42.5 218.5q0 226 -131 381z" />
<glyph unicode="&#xd9;" horiz-adv-x="1351" d="M109 1251v115h362v-115h-109v-710q0 -103 16.5 -180t67.5 -134q48 -54 119.5 -87.5t143.5 -33.5q104 0 197.5 65t125.5 163q23 72 23 198v619q0 67 -21 84.5t-90 15.5v115h324v-115h-11q-65 0 -81.5 -19.5t-16.5 -86.5v-647q0 -247 -125 -377q-66 -69 -155 -106.5 t-185 -37.5q-135 0 -259.5 75.5t-172.5 197.5q-39 104 -39 246v755h-114zM360 1706h158l256 -231h-127z" />
<glyph unicode="&#xda;" horiz-adv-x="1351" d="M109 1251v115h362v-115h-109v-710q0 -103 16.5 -180t67.5 -134q48 -54 119.5 -87.5t143.5 -33.5q104 0 197.5 65t125.5 163q23 72 23 198v619q0 67 -21 84.5t-90 15.5v115h324v-115h-11q-65 0 -81.5 -19.5t-16.5 -86.5v-647q0 -247 -125 -377q-66 -69 -155 -106.5 t-185 -37.5q-135 0 -259.5 75.5t-172.5 197.5q-39 104 -39 246v755h-114zM633 1475l256 231h158l-285 -231h-129z" />
<glyph unicode="&#xdb;" horiz-adv-x="1351" d="M109 1251v115h362v-115h-109v-710q0 -103 16.5 -180t67.5 -134q48 -54 119.5 -87.5t143.5 -33.5q104 0 197.5 65t125.5 163q23 72 23 198v619q0 67 -21 84.5t-90 15.5v115h324v-115h-11q-65 0 -81.5 -19.5t-16.5 -86.5v-647q0 -247 -125 -377q-66 -69 -155 -106.5 t-185 -37.5q-135 0 -259.5 75.5t-172.5 197.5q-39 104 -39 246v755h-114zM387 1528l270 227h107l256 -227h-143l-168 135l-179 -135h-143z" />
<glyph unicode="&#xdc;" horiz-adv-x="1351" d="M109 1251v115h362v-115h-109v-710q0 -103 16.5 -180t67.5 -134q48 -54 119.5 -87.5t143.5 -33.5q104 0 197.5 65t125.5 163q23 72 23 198v619q0 67 -21 84.5t-90 15.5v115h324v-115h-11q-65 0 -81.5 -19.5t-16.5 -86.5v-647q0 -247 -125 -377q-66 -69 -155 -106.5 t-185 -37.5q-135 0 -259.5 75.5t-172.5 197.5q-39 104 -39 246v755h-114zM469 1602q0 31 18 57.5t48 26.5q33 0 58 -18t25 -50t-17.5 -57t-47.5 -25q-32 0 -58 18t-26 48zM815 1604q0 34 17.5 59t50.5 25q32 0 58 -18t26 -50t-18 -57t-50 -25q-33 0 -58.5 17.5t-25.5 48.5z " />
<glyph unicode="&#xdd;" horiz-adv-x="1075" d="M-43 1251v115h385v-115h-115l324 -528l268 424q31 52 31 72q0 13 -8 21t-23 10.5t-27.5 2.5t-30 -1t-22.5 -1v115h379v-115q-78 -1 -111 -21t-77 -89l-330 -518v-508h119v-115h-379v115h121v487l-398 649h-106zM459 1475l256 231h155l-284 -231h-127z" />
<glyph unicode="&#xde;" horiz-adv-x="983" d="M123 0v115h115v1136h-115v115h366v-115h-112v-186q13 0 68.5 0.5t76.5 0t68.5 -3.5t75 -10t64 -20.5t65.5 -32.5q79 -52 121 -133.5t42 -177.5q0 -106 -49.5 -196t-140.5 -140q-28 -15 -62.5 -25.5t-61.5 -16t-69.5 -8t-64 -2.5t-70 0.5t-63.5 0.5v-186h112v-115h-366z M377 418h102q47 0 77 2t69.5 11.5t70.5 27.5q58 34 87.5 92.5t29.5 128.5q0 135 -84 202.5t-223 67.5h-129v-532z" />
<glyph unicode="&#xdf;" horiz-adv-x="1019" d="M61 0v109h111v868q0 86 20 159t60.5 131t108.5 91t157 33q135 0 225.5 -84.5t90.5 -219.5q0 -194 -191 -315q68 -6 112.5 -24t88.5 -62q108 -108 108 -285q0 -109 -44.5 -200t-130 -146t-195.5 -55h-95v109h33q150 0 223.5 72.5t73.5 221.5q0 146 -78 219.5t-225 73.5 q-19 0 -65 -4v113q119 0 188.5 72t69.5 192q0 88 -55 148.5t-142 60.5q-54 0 -93 -20t-61 -49.5t-35 -75t-16.5 -85t-3.5 -90.5v-849h109v-109h-349z" />
<glyph unicode="&#xe0;" horiz-adv-x="927" d="M90 246q0 120 86 195t207 75q71 0 121.5 -23t111.5 -75v117q0 91 -55 137.5t-147 46.5q-163 0 -191 -117h-94v178h6q9 0 26 -1t25 -1q15 0 43 8q114 31 199 31q63 0 118 -14t100.5 -42.5t72 -79t26.5 -116.5v-456h105v-109h-234v88q-111 -102 -251 -102 q-116 0 -195.5 72.5t-79.5 187.5zM170 1235h147l166 -289h-110zM215 252q0 -77 58.5 -125.5t136.5 -48.5q134 0 206 125v92q-49 65 -95 96t-115 31q-77 0 -134 -47t-57 -123z" />
<glyph unicode="&#xe1;" horiz-adv-x="927" d="M90 246q0 120 86 195t207 75q71 0 121.5 -23t111.5 -75v117q0 91 -55 137.5t-147 46.5q-163 0 -191 -117h-94v178h6q9 0 26 -1t25 -1q15 0 43 8q114 31 199 31q63 0 118 -14t100.5 -42.5t72 -79t26.5 -116.5v-456h105v-109h-234v88q-111 -102 -251 -102 q-116 0 -195.5 72.5t-79.5 187.5zM215 252q0 -77 58.5 -125.5t136.5 -48.5q134 0 206 125v92q-49 65 -95 96t-115 31q-77 0 -134 -47t-57 -123zM348 946l166 289h148l-203 -289h-111z" />
<glyph unicode="&#xe2;" horiz-adv-x="927" d="M90 246q0 120 86 195t207 75q71 0 121.5 -23t111.5 -75v117q0 91 -55 137.5t-147 46.5q-163 0 -191 -117h-94v178h6q9 0 26 -1t25 -1q15 0 43 8q114 31 199 31q63 0 118 -14t100.5 -42.5t72 -79t26.5 -116.5v-456h105v-109h-234v88q-111 -102 -251 -102 q-116 0 -195.5 72.5t-79.5 187.5zM172 946l219 287h98l211 -287h-129l-133 176l-133 -176h-133zM215 252q0 -77 58.5 -125.5t136.5 -48.5q134 0 206 125v92q-49 65 -95 96t-115 31q-77 0 -134 -47t-57 -123z" />
<glyph unicode="&#xe3;" horiz-adv-x="927" d="M90 246q0 120 86 195t207 75q71 0 121.5 -23t111.5 -75v117q0 91 -55 137.5t-147 46.5q-163 0 -191 -117h-94v178h6q9 0 26 -1t25 -1q15 0 43 8q114 31 199 31q63 0 118 -14t100.5 -42.5t72 -79t26.5 -116.5v-456h105v-109h-234v88q-111 -102 -251 -102 q-116 0 -195.5 72.5t-79.5 187.5zM182 989q3 75 40 130t108 55q27 0 57.5 -15t52.5 -33.5t50 -33.5t51 -15q51 0 55 74h94q0 -69 -36 -124.5t-101 -55.5q-38 0 -79.5 24.5t-76.5 49t-59 24.5q-30 0 -45 -24t-17 -56h-94zM215 252q0 -77 58.5 -125.5t136.5 -48.5 q134 0 206 125v92q-49 65 -95 96t-115 31q-77 0 -134 -47t-57 -123z" />
<glyph unicode="&#xe4;" horiz-adv-x="927" d="M90 246q0 120 86 195t207 75q71 0 121.5 -23t111.5 -75v117q0 91 -55 137.5t-147 46.5q-163 0 -191 -117h-94v178h6q9 0 26 -1t25 -1q15 0 43 8q114 31 199 31q63 0 118 -14t100.5 -42.5t72 -79t26.5 -116.5v-456h105v-109h-234v88q-111 -102 -251 -102 q-116 0 -195.5 72.5t-79.5 187.5zM190 1077q0 32 18 56t48 24q31 0 55.5 -16.5t24.5 -46.5q0 -32 -17 -56t-47 -24q-31 0 -56.5 16.5t-25.5 46.5zM215 252q0 -77 58.5 -125.5t136.5 -48.5q134 0 206 125v92q-49 65 -95 96t-115 31q-77 0 -134 -47t-57 -123zM537 1081 q0 33 16.5 56.5t48.5 23.5t56 -16.5t24 -48.5q0 -31 -17 -55.5t-47 -24.5q-32 0 -56.5 17.5t-24.5 47.5z" />
<glyph unicode="&#xe5;" horiz-adv-x="927" d="M90 246q0 120 86 195t207 75q71 0 121.5 -23t111.5 -75v117q0 91 -55 137.5t-147 46.5q-163 0 -191 -117h-94v178h6q9 0 26 -1t25 -1q15 0 43 8q114 31 199 31q63 0 118 -14t100.5 -42.5t72 -79t26.5 -116.5v-456h105v-109h-234v88q-111 -102 -251 -102 q-116 0 -195.5 72.5t-79.5 187.5zM215 252q0 -77 58.5 -125.5t136.5 -48.5q134 0 206 125v92q-49 65 -95 96t-115 31q-77 0 -134 -47t-57 -123zM256 1137q0 75 52.5 128.5t127.5 53.5q74 0 127 -53.5t53 -126.5q0 -75 -52 -130t-126 -55q-75 0 -128.5 54t-53.5 129z M326 1139q0 -45 32 -78t76 -33q45 0 77 34t32 79q0 43 -33.5 73.5t-77.5 30.5q-43 0 -74.5 -31.5t-31.5 -74.5z" />
<glyph unicode="&#xe6;" horiz-adv-x="1437" d="M90 246q0 119 87 194.5t208 75.5q73 0 122.5 -22.5t110.5 -75.5v114q0 95 -54.5 141t-151.5 46q-169 0 -189 -119h-96v180h6q9 0 27.5 -1t27.5 -1q15 0 39 8q122 31 195 31q102 0 173.5 -26.5t121.5 -100.5q64 65 129.5 96t152.5 31q161 0 266 -110.5t105 -272.5 q0 -7 -1 -21.5t-1 -21.5h-620q5 -128 74 -217.5t192 -89.5q202 0 229 139q1 5 2 15.5t2 15.5h121v-98q-50 -89 -139.5 -129.5t-200.5 -40.5q-221 0 -336 170q-67 -88 -145 -129t-185 -41q-118 0 -195 71.5t-77 188.5zM219 252q0 -77 57.5 -125.5t135.5 -48.5q134 0 206 125 v92q-48 66 -93.5 96.5t-116.5 30.5q-78 0 -133.5 -46.5t-55.5 -123.5zM750 475h497q-9 105 -76 175.5t-170 70.5q-102 0 -167 -70t-84 -176z" />
<glyph unicode="&#xe7;" horiz-adv-x="892" d="M68 399q0 117 48 211.5t139 150.5t208 56q163 0 256 -96l35 80h63v-297h-98q-9 89 -79 143.5t-163 54.5q-123 0 -197.5 -83.5t-74.5 -208.5q0 -128 80.5 -219t206.5 -91q97 0 159 45t68 138h98v-148q-116 -139 -309 -149l-45 -111q12 2 37 2q65 0 108 -45.5t43 -110.5 q0 -76 -52 -125t-128 -49q-70 0 -118 41.5t-54 110.5h98q19 -59 76 -59q33 0 55.5 21t22.5 54t-22.5 53.5t-55.5 20.5q-34 0 -63 -29l-62 62l68 168q-157 22 -252.5 135.5t-95.5 273.5z" />
<glyph unicode="&#xe8;" horiz-adv-x="890" d="M68 401q0 176 108 296t283 120q92 0 162.5 -34t113.5 -93.5t64.5 -135t21.5 -163.5h-620q3 -136 76 -221.5t206 -85.5q100 0 154.5 37t62.5 133h121v-100q-46 -86 -139.5 -127t-202.5 -41q-182 0 -296.5 116.5t-114.5 298.5zM203 475h497q-9 104 -75 175t-168 71 q-103 0 -169.5 -69.5t-84.5 -176.5zM207 1235h145l168 -289h-112z" />
<glyph unicode="&#xe9;" horiz-adv-x="890" d="M68 401q0 176 108 296t283 120q92 0 162.5 -34t113.5 -93.5t64.5 -135t21.5 -163.5h-620q3 -136 76 -221.5t206 -85.5q100 0 154.5 37t62.5 133h121v-100q-46 -86 -139.5 -127t-202.5 -41q-182 0 -296.5 116.5t-114.5 298.5zM203 475h497q-9 104 -75 175t-168 71 q-103 0 -169.5 -69.5t-84.5 -176.5zM385 946l166 289h145l-200 -289h-111z" />
<glyph unicode="&#xea;" horiz-adv-x="890" d="M68 401q0 176 108 296t283 120q92 0 162.5 -34t113.5 -93.5t64.5 -135t21.5 -163.5h-620q3 -136 76 -221.5t206 -85.5q100 0 154.5 37t62.5 133h121v-100q-46 -86 -139.5 -127t-202.5 -41q-182 0 -296.5 116.5t-114.5 298.5zM195 946l219 287h98l211 -287h-129l-133 176 l-133 -176h-133zM203 475h497q-9 104 -75 175t-168 71q-103 0 -169.5 -69.5t-84.5 -176.5z" />
<glyph unicode="&#xeb;" horiz-adv-x="890" d="M68 401q0 176 108 296t283 120q92 0 162.5 -34t113.5 -93.5t64.5 -135t21.5 -163.5h-620q3 -136 76 -221.5t206 -85.5q100 0 154.5 37t62.5 133h121v-100q-46 -86 -139.5 -127t-202.5 -41q-182 0 -296.5 116.5t-114.5 298.5zM203 475h497q-9 104 -75 175t-168 71 q-103 0 -169.5 -69.5t-84.5 -176.5zM213 1077q0 32 18 56t48 24q31 0 55 -16.5t24 -46.5q0 -32 -16.5 -56t-46.5 -24q-31 0 -56.5 16.5t-25.5 46.5zM559 1081q0 33 17 56.5t49 23.5t56 -16.5t24 -48.5q0 -31 -17 -55.5t-47 -24.5q-32 0 -57 17.5t-25 47.5z" />
<glyph unicode="&#xec;" horiz-adv-x="526" d="M12 1235h146l166 -289h-111zM96 0v109h107v585h-107v107h238v-692h108v-109h-346z" />
<glyph unicode="&#xed;" horiz-adv-x="526" d="M96 0v109h107v585h-107v107h238v-692h108v-109h-346zM176 946l166 289h145l-200 -289h-111z" />
<glyph unicode="&#xee;" horiz-adv-x="526" d="M12 946l197 287h88l190 -287h-116l-119 176l-121 -176h-119zM96 0v109h107v585h-107v107h238v-692h108v-109h-346z" />
<glyph unicode="&#xef;" horiz-adv-x="526" d="M45 1077q0 32 18 56t48 24q31 0 55 -16.5t24 -46.5q0 -32 -16.5 -56t-46.5 -24q-31 0 -56.5 16.5t-25.5 46.5zM96 0v109h107v585h-107v107h238v-692h108v-109h-346zM295 1081q0 33 16.5 56.5t48.5 23.5t56 -16.5t24 -48.5q0 -31 -16.5 -55.5t-46.5 -24.5q-32 0 -57 17.5 t-25 47.5z" />
<glyph unicode="&#xf0;" horiz-adv-x="974" d="M68 401q0 174 121.5 294t295.5 120q137 0 258 -86q-24 136 -102 258.5t-192 208.5l-187 -137l-37 53l166 121q-78 50 -186 90l28 57q19 -5 114.5 -45.5t113.5 -52.5l184 135l39 -51l-158 -117q97 -69 153.5 -129.5t108.5 -156.5q119 -223 119 -500q0 -102 -18 -177.5 t-70 -140.5q-60 -75 -147.5 -117t-184.5 -42q-175 0 -297 120.5t-122 294.5zM203 403q0 -124 81 -211.5t203 -87.5q120 0 201.5 88t81.5 209t-82.5 208t-202.5 87q-119 0 -200.5 -86.5t-81.5 -206.5z" />
<glyph unicode="&#xf1;" horiz-adv-x="1052" d="M92 0v109h107v581h-107v111h238v-111q54 65 114.5 96t141.5 31q127 0 204.5 -78.5t77.5 -206.5v-423h109v-109h-240v479q0 226 -188 226q-109 0 -164 -75.5t-55 -187.5v-333h104v-109h-342zM272 989q3 75 40 130t108 55q27 0 57.5 -15t52.5 -33.5t50 -33.5t51 -15 q51 0 55 74h94q0 -69 -36 -124.5t-101 -55.5q-38 0 -79.5 24.5t-76.5 49t-59 24.5q-30 0 -44.5 -23.5t-16.5 -56.5h-95z" />
<glyph unicode="&#xf2;" horiz-adv-x="974" d="M68 401q0 174 122.5 295t296.5 121t296 -121t122 -295t-121.5 -294.5t-296.5 -120.5q-174 0 -296.5 120.5t-122.5 294.5zM203 401q0 -122 81.5 -210.5t202.5 -88.5t203 88.5t82 210.5q0 120 -82.5 208.5t-202.5 88.5t-202 -88.5t-82 -208.5zM262 1235h148l165 -289h-110z " />
<glyph unicode="&#xf3;" horiz-adv-x="974" d="M68 401q0 174 122.5 295t296.5 121t296 -121t122 -295t-121.5 -294.5t-296.5 -120.5q-174 0 -296.5 120.5t-122.5 294.5zM203 401q0 -122 81.5 -210.5t202.5 -88.5t203 88.5t82 210.5q0 120 -82.5 208.5t-202.5 88.5t-202 -88.5t-82 -208.5zM399 946l166 289h148 l-203 -289h-111z" />
<glyph unicode="&#xf4;" horiz-adv-x="974" d="M68 401q0 174 122.5 295t296.5 121t296 -121t122 -295t-121.5 -294.5t-296.5 -120.5q-174 0 -296.5 120.5t-122.5 294.5zM203 401q0 -122 81.5 -210.5t202.5 -88.5t203 88.5t82 210.5q0 120 -82.5 208.5t-202.5 88.5t-202 -88.5t-82 -208.5zM223 946l219 287h99l211 -287 h-129l-134 176l-133 -176h-133z" />
<glyph unicode="&#xf5;" horiz-adv-x="974" d="M68 401q0 174 122.5 295t296.5 121t296 -121t122 -295t-121.5 -294.5t-296.5 -120.5q-174 0 -296.5 120.5t-122.5 294.5zM203 401q0 -122 81.5 -210.5t202.5 -88.5t203 88.5t82 210.5q0 120 -82.5 208.5t-202.5 88.5t-202 -88.5t-82 -208.5zM231 989q3 75 41 130t109 55 q28 0 58 -15t52 -33.5t49.5 -33.5t51.5 -15q51 0 55 74h94q0 -69 -36 -124.5t-101 -55.5q-38 0 -79.5 24.5t-76.5 49t-59 24.5q-30 0 -44.5 -23.5t-16.5 -56.5h-97z" />
<glyph unicode="&#xf6;" horiz-adv-x="974" d="M68 401q0 174 122.5 295t296.5 121t296 -121t122 -295t-121.5 -294.5t-296.5 -120.5q-174 0 -296.5 120.5t-122.5 294.5zM203 401q0 -122 81.5 -210.5t202.5 -88.5t203 88.5t82 210.5q0 120 -82.5 208.5t-202.5 88.5t-202 -88.5t-82 -208.5zM242 1077q0 32 17.5 56 t47.5 24t54 -17t24 -46q0 -31 -15.5 -55.5t-45.5 -24.5q-31 0 -56.5 16.5t-25.5 46.5zM588 1081q0 33 16.5 56.5t48.5 23.5t56 -16.5t24 -48.5q0 -31 -16.5 -55.5t-46.5 -24.5q-32 0 -57 17.5t-25 47.5z" />
<glyph unicode="&#xf7;" d="M68 621v116h888v-116h-888zM420 301q0 38 27 65t65 27q37 0 63.5 -27.5t26.5 -64.5t-26.5 -63.5t-63.5 -26.5t-64.5 26.5t-27.5 63.5zM420 1057q0 38 27 65t65 27q37 0 63.5 -27.5t26.5 -64.5t-26.5 -63.5t-63.5 -26.5t-64.5 26.5t-27.5 63.5z" />
<glyph unicode="&#xf8;" horiz-adv-x="974" d="M61 35l101 100q-94 111 -94 273q0 171 120 290t291 119q79 0 141 -23t130 -73l100 100l72 -71l-101 -101q45 -59 63.5 -113t18.5 -126q0 -183 -120.5 -303.5t-303.5 -120.5q-71 0 -126 18t-117 59l-103 -102zM201 395q0 -89 53 -168l405 406q-75 63 -178 63 q-120 0 -200 -89.5t-80 -211.5zM326 154q87 -54 163 -54q120 0 199.5 90t79.5 211q0 48 -8.5 80t-30.5 76z" />
<glyph unicode="&#xf9;" horiz-adv-x="1030" d="M72 692v109h237v-477q0 -228 191 -228q109 0 164 75t55 187v334h-105v109h236v-692h106v-109h-237v121q-59 -70 -117.5 -102.5t-142.5 -32.5q-127 0 -203 77.5t-76 204.5v424h-108zM221 1235h148l166 -289h-111z" />
<glyph unicode="&#xfa;" horiz-adv-x="1030" d="M72 692v109h237v-477q0 -228 191 -228q109 0 164 75t55 187v334h-105v109h236v-692h106v-109h-237v121q-59 -70 -117.5 -102.5t-142.5 -32.5q-127 0 -203 77.5t-76 204.5v424h-108zM414 946l166 289h145l-201 -289h-110z" />
<glyph unicode="&#xfb;" horiz-adv-x="1030" d="M72 692v109h237v-477q0 -228 191 -228q109 0 164 75t55 187v334h-105v109h236v-692h106v-109h-237v121q-59 -70 -117.5 -102.5t-142.5 -32.5q-127 0 -203 77.5t-76 204.5v424h-108zM238 946l219 287h98l209 -287h-127l-133 176l-135 -176h-131z" />
<glyph unicode="&#xfc;" horiz-adv-x="1030" d="M72 692v109h237v-477q0 -228 191 -228q109 0 164 75t55 187v334h-105v109h236v-692h106v-109h-237v121q-59 -70 -117.5 -102.5t-142.5 -32.5q-127 0 -203 77.5t-76 204.5v424h-108zM242 1077q0 32 17.5 56t47.5 24q31 0 55.5 -16.5t24.5 -46.5q0 -32 -16.5 -56t-46.5 -24 q-31 0 -56.5 16.5t-25.5 46.5zM588 1081q0 33 16.5 56.5t48.5 23.5t56 -16.5t24 -48.5q0 -31 -16.5 -55.5t-46.5 -24.5q-32 0 -57 17.5t-25 47.5z" />
<glyph unicode="&#xfd;" horiz-adv-x="899" d="M-20 692v109h364v-109h-119l238 -528q5 10 31.5 69.5t55 123t58.5 132t49 116.5t19 57q0 11 -7 18t-22 9.5t-25 3t-28 0t-19 -0.5v109h345v-109q-74 0 -98 -14.5t-54 -81.5l-385 -840h190v-108h-358l176 385l-311 659h-100zM348 946l166 289h148l-203 -289h-111z" />
<glyph unicode="&#xfe;" horiz-adv-x="1081" d="M74 -244h106v1501h-106v109h237v-692q61 73 134.5 107t170.5 34q181 0 288.5 -118t107.5 -300q0 -179 -109 -295t-287 -116q-96 0 -168 36t-137 111v-377h107v-108h-344v108zM305 412q0 -133 79 -225.5t210 -92.5q126 0 206.5 89t80.5 216q0 129 -78 218.5t-205 89.5 q-123 0 -208 -86t-85 -209z" />
<glyph unicode="&#xff;" horiz-adv-x="899" d="M-20 692v109h364v-109h-117l236 -526q213 481 213 496q0 11 -7.5 18t-22.5 9.5t-25 3t-28.5 0t-19.5 -0.5v109h347v-109q-69 -5 -98.5 -21.5t-55.5 -74.5l-387 -850h194v-111h-366l186 398l-313 659h-100zM211 1077q0 32 17.5 56t47.5 24t54 -17t24 -46 q0 -31 -15.5 -55.5t-45.5 -24.5q-31 0 -56.5 16.5t-25.5 46.5zM557 1081q0 33 17 56.5t49 23.5t55.5 -16.5t23.5 -48.5q0 -31 -16.5 -55.5t-46.5 -24.5q-32 0 -57 17.5t-25 47.5z" />
<glyph unicode="&#x152;" horiz-adv-x="1974" d="M66 682q0 146 54.5 276.5t147.5 224t223.5 148.5t276.5 55q121 0 211.5 -30.5t187.5 -102.5v113h703l2 -352h-82l-41 239h-442v-487h350v-109h-350v-544h442l41 256h84v-369h-707v113q-101 -72 -191 -104t-206 -32q-193 0 -355 93.5t-255.5 256t-93.5 355.5zM209 676 q0 -153 74.5 -285t204 -209.5t282.5 -77.5q82 0 168 25q50 16 98.5 41.5t89.5 71t41 94.5v717q0 8 -1.5 15t-6 14.5l-7.5 12.5t-10.5 12.5l-10.5 10.5t-12 11t-11 10q-66 57 -159 89t-185 32q-116 0 -220 -48t-177 -128t-115.5 -186.5t-42.5 -221.5z" />
<glyph unicode="&#x153;" horiz-adv-x="1589" d="M66 408q0 171 123 290t294 119q208 0 346 -180q60 91 137.5 135.5t182.5 44.5q93 0 165.5 -33t117.5 -91t67.5 -134.5t22.5 -167.5h-623q3 -132 75 -219.5t200 -87.5q88 0 144 30t75 109q1 4 2 14t2 15h125v-96q-103 -170 -338 -170q-125 0 -200.5 41.5t-154.5 144.5 q-66 -95 -148 -140.5t-196 -45.5q-177 0 -298 122.5t-121 299.5zM201 401q0 -122 80.5 -210.5t201.5 -88.5t203 88.5t82 210.5q0 120 -82.5 208.5t-202.5 88.5q-119 0 -200.5 -88t-81.5 -209zM903 475h496q-9 105 -76 175.5t-170 70.5q-101 0 -170 -71.5t-80 -174.5z" />
<glyph unicode="&#x178;" horiz-adv-x="1075" d="M-43 1251v115h387v-115h-117l324 -528l268 424q33 49 33 70q0 14 -8 22.5t-23.5 11t-28 2.5t-30.5 -1t-23 -1v115h379v-115q-78 -3 -110 -22.5t-76 -87.5l-332 -518v-508h115v-115h-367v115h113v487l-398 649h-106zM289 1602q0 32 18.5 58t48.5 26q32 0 57 -18t25 -50 q0 -33 -17 -57.5t-48 -24.5q-32 0 -58 18t-26 48zM635 1604q0 33 18 58.5t49 25.5q32 0 58 -18t26 -50t-17.5 -57t-49.5 -25t-58 18t-26 48z" />
<glyph unicode="&#x2c6;" d="M248 946l219 287h96l213 -287h-129l-133 176l-133 -176h-133z" />
<glyph unicode="&#x2dc;" d="M256 989q3 75 40.5 130t106.5 55q28 0 58.5 -15t52.5 -33.5t49.5 -33.5t50.5 -15q52 0 56 74h98h-2q0 -69 -36 -124.5t-101 -55.5q-39 0 -81 24.5t-76.5 49t-57.5 24.5q-31 0 -45.5 -23.5t-16.5 -56.5h-96z" />
<glyph unicode="&#x2000;" horiz-adv-x="915" />
<glyph unicode="&#x2001;" horiz-adv-x="1831" />
<glyph unicode="&#x2002;" horiz-adv-x="915" />
<glyph unicode="&#x2003;" horiz-adv-x="1831" />
<glyph unicode="&#x2004;" horiz-adv-x="610" />
<glyph unicode="&#x2005;" horiz-adv-x="457" />
<glyph unicode="&#x2006;" horiz-adv-x="305" />
<glyph unicode="&#x2007;" horiz-adv-x="305" />
<glyph unicode="&#x2008;" horiz-adv-x="228" />
<glyph unicode="&#x2009;" horiz-adv-x="366" />
<glyph unicode="&#x200a;" horiz-adv-x="101" />
<glyph unicode="&#x2010;" horiz-adv-x="452" d="M0 373v106h453v-106h-453z" />
<glyph unicode="&#x2011;" horiz-adv-x="452" d="M0 373v106h453v-106h-453z" />
<glyph unicode="&#x2012;" horiz-adv-x="452" d="M0 373v106h453v-106h-453z" />
<glyph unicode="&#x2013;" d="M68 621v116h888v-116h-888z" />
<glyph unicode="&#x2014;" horiz-adv-x="1345" d="M0 373v106h1346v-106h-1346z" />
<glyph unicode="&#x2018;" horiz-adv-x="546" d="M141 813l168 553h97l-123 -553h-142z" />
<glyph unicode="&#x2019;" horiz-adv-x="546" d="M141 813l123 553h142l-168 -553h-97z" />
<glyph unicode="&#x201a;" horiz-adv-x="546" d="M141 -375l123 551h142l-168 -551h-97z" />
<glyph unicode="&#x201c;" horiz-adv-x="823" d="M141 813l168 553h97l-123 -553h-142zM418 813l168 553h96l-123 -553h-141z" />
<glyph unicode="&#x201d;" horiz-adv-x="823" d="M141 813l123 553h142l-168 -553h-97zM418 813l123 553h141l-168 -553h-96z" />
<glyph unicode="&#x201e;" horiz-adv-x="806" d="M141 -375l123 551h142l-168 -551h-97zM401 -375l123 551h142l-168 -551h-97z" />
<glyph unicode="&#x2022;" horiz-adv-x="1366" d="M401 696q0 118 82.5 202.5t200.5 84.5q116 0 198.5 -85.5t82.5 -201.5t-82.5 -201t-198.5 -85q-118 0 -200.5 84t-82.5 202z" />
<glyph unicode="&#x2026;" horiz-adv-x="1433" d="M154 68q0 35 25.5 60.5t60.5 25.5t60.5 -25.5t25.5 -60.5t-25.5 -60.5t-60.5 -25.5q-37 0 -61.5 24.5t-24.5 61.5zM631 68q0 35 25.5 60.5t60.5 25.5t60.5 -25.5t25.5 -60.5t-25.5 -60.5t-60.5 -25.5t-60.5 25.5t-25.5 60.5zM1108 68q0 35 25.5 60.5t60.5 25.5 t60.5 -25.5t25.5 -60.5q0 -37 -24.5 -61.5t-61.5 -24.5q-35 0 -60.5 25.5t-25.5 60.5z" />
<glyph unicode="&#x202f;" horiz-adv-x="366" />
<glyph unicode="&#x2039;" horiz-adv-x="477" d="M84 416l176 399h129l-174 -399l174 -387h-129z" />
<glyph unicode="&#x203a;" horiz-adv-x="477" d="M86 29l176 387l-176 399h131l174 -399l-174 -387h-131z" />
<glyph unicode="&#x205f;" horiz-adv-x="457" />
<glyph unicode="&#x20ac;" horiz-adv-x="1009" d="M20 500v75h177q-2 23 -2 68q0 57 2 86h-177v76h185q11 70 32 138t57.5 136.5t82.5 120.5t111.5 84.5t140.5 32.5q78 0 151 -38.5t115 -104.5v110h78v-364h-78q-12 126 -71.5 206t-176.5 80q-60 0 -109.5 -26t-83 -66t-59 -95t-39.5 -106.5t-22 -107.5h342v-76h-350 q-2 -27 -2 -82q0 -47 2 -72h350v-75h-342q11 -73 34.5 -139.5t62.5 -127t100.5 -97t136.5 -36.5q120 0 190 107q34 52 37 143h78v-211q-142 -159 -314 -159q-79 0 -148.5 32t-120 84t-89.5 120.5t-62.5 140t-33.5 143.5h-185z" />
<glyph unicode="&#x2122;" horiz-adv-x="1554" d="M29 1147v219h538v-219h-59l-29 147h-137v-628h74v-78h-232v78h68v628h-137l-29 -147h-57zM643 588v78h20t14 1.5t12 4l6 7.5t4.5 13.5t0.5 20.5v575h-57v78h143l271 -602l266 602h152v-78h-62v-622h62v-78h-220v78h66v532l-266 -596h-21l-262 586v-498q0 -12 6 -18 q14 -6 58 -6v-78h-193z" />
<glyph unicode="&#xe000;" horiz-adv-x="798" d="M0 0v799h799v-799h-799z" />
<glyph unicode="&#xfb01;" horiz-adv-x="1091" d="M86 0v109h104v583h-104v109h104v334q0 116 54 181.5t168 65.5q35 0 53 -2v-125q-92 0 -117.5 -29t-25.5 -122v-303h143v-109h-143v-583h143v-109h-379zM662 0v109h106v585h-106v107h235v-692h111v-109h-346zM735 1149q0 29 19.5 50.5t48.5 21.5t51.5 -20t22.5 -48 q0 -29 -20 -51.5t-48 -22.5q-30 0 -52 20t-22 50z" />
<glyph unicode="&#xfb02;" horiz-adv-x="1060" d="M86 0v109h104v583h-104v109h104v334q0 116 54 181.5t168 65.5q35 0 53 -2v-125q-92 0 -117.5 -29t-25.5 -122v-303h143v-109h-143v-583h143v-109h-379zM641 0v109h107v1146h-107v111h238v-1257h112v-109h-350z" />
</font>
</defs>
</svg>
